<?xml version="1.0" encoding="utf-8"?>
<!-- Generator: Adobe Illustrator 25.0.0, SVG Export Plug-In . SVG Version: 6.00 Build 0)  -->
<svg version="1.1" id="Layer_1" xmlns="http://www.w3.org/2000/svg" xmlns:xlink="http://www.w3.org/1999/xlink" x="0px" y="0px"
	 viewBox="0 0 1440 599" style="enable-background:new 0 0 1440 599;" xml:space="preserve">
<style type="text/css">
	.st0{fill:#ECEDF2;}
	.st1{opacity:0.75;fill:none;stroke:#B9BDCD;enable-background:new    ;}
	.st2{fill:#FCBD60;}
	.st3{fill:#FF9461;}
	.st4{fill:#FFDAC9;}
</style>
<path class="st0" d="M1107.5,437.5c17.3,15.2,1.2,52.3,0,67c25.5-96,112-189.5,245-146.5c58.9,19,157.5-63.7,169-127V-87.5H-57v325
	c12.5-0.5,76.3,20.1,103.5-43c73-169.5,251.5-56,322,0c78.1,62,157.5-3,228.5-3S748.5,242,755,358s163,68,223.5,60
	S1083,416,1107.5,437.5z"/>
<path class="st1" d="M1115.5,437c3,22.9-6.8,52.8-8,67.5c25.5-96,114-174.5,247-131.5c58.9,19,155.5-47.7,167-111V-87.5H-57v307
	c12.5-0.5,43.4,0.1,81.5-57c92-138,286.5-13,346,46.5c70.5,70.5,211-27,282-27s62.6,90.6,92,204.5c30.5,118,180.5,15.8,239.5,0
	C1055,367.5,1112,410,1115.5,437z"/>
<path class="st2" d="M1261.5,184c22.4,0,40.5-18.1,40.5-40.5s-18.1-40.5-40.5-40.5s-40.5,18.1-40.5,40.5S1239.1,184,1261.5,184z"/>
<path class="st3" d="M1178,174.9l25.8-11c0,0-3.8-12.9,11.1-16.6c14.9-3.7,12.4,11,12.4,11s-1.9-20.3,12.4-22.2
	c14.3-1.9,15.5,24.7,15.5,24.7s10-12.9,16.1-1.9c4.4,6.2,4.4,8.7,4.4,8.7l19.3,7.4h-117V174.9z"/>
<path class="st3" d="M869,309.6l13.6-5.9c0,0-2-6.8,5.9-8.8c7.8-2,6.6,5.9,6.6,5.9s-1-10.7,6.6-11.7c7.6-1,8.2,13.1,8.2,13.1
	s5.2-6.8,8.5-1c2.3,3.3,2.3,4.6,2.3,4.6l10.1,3.9H869z"/>
<path class="st4" d="M609,221l19.4-8.3c0,0-2.9-9.6,8.4-12.4c11.2-2.8,9.4,8.3,9.4,8.3s-1.4-15.1,9.4-16.5
	c10.8-1.4,11.7,18.4,11.7,18.4s7.4-9.6,12.1-1.4c3.3,4.6,3.3,6.4,3.3,6.4L697,221H609z"/>
<path class="st4" d="M239,154l19.4-8.3c0,0-2.9-9.6,8.4-12.4c11.2-2.8,9.4,8.3,9.4,8.3s-1.4-15.1,9.4-16.5
	c10.8-1.4,11.7,18.4,11.7,18.4s7.4-9.6,12.1-1.4c3.3,4.6,3.3,6.4,3.3,6.4L327,154H239z"/>
<path class="st3" d="M1028,150.6l11.6-5c0,0-1.6-5.8,5-7.6c6.6-1.6,5.6,5,5.6,5s-0.8-9.2,5.6-10c6.4-0.8,6.9,11.1,6.9,11.1
	s4.5-5.8,7.3-0.8c1.9,2.8,1.9,3.9,1.9,3.9l8.6,3.4H1028z"/>
</svg>
