<svg width="54" height="54" viewBox="0 0 54 54" fill="none" xmlns="http://www.w3.org/2000/svg">
<circle cx="27" cy="27" r="27" fill="#48B349"/>
<path d="M37.3689 26.2059C36.9105 25.7475 36.1676 25.7475 35.7092 26.2038L35.7081 26.2027L30.491 31.4199C30.2823 31.6254 29.9968 31.7529 29.6806 31.756H24.0472C23.7079 31.756 23.4329 31.481 23.4329 31.1417C23.4329 30.8014 23.7079 30.5263 24.0472 30.5263H28.3561V30.5242C29.0041 30.5232 29.5289 29.9974 29.5289 29.3493C29.5289 28.7012 29.0042 28.1754 28.3561 28.1743H22.847C21.8228 28.1743 20.827 28.3798 20.1251 29.0353H20.1177L20.045 29.108C20.0398 29.1132 20.0345 29.1174 20.0292 29.1238L16.3327 32.7909C16.1072 33.0238 15.9944 33.3262 16.0007 33.6276V37.8248C16.0007 38.475 16.5266 39.0008 17.1757 38.9998C17.5002 38.9998 17.7943 38.8681 18.006 38.6563C18.0092 38.6531 18.0124 38.6531 18.0155 38.651L20.9503 35.7173C21.0736 35.5993 21.2337 35.5403 21.3928 35.5456C21.5446 35.5508 22.6015 35.5456 22.7827 35.5456L22.7817 35.5435C22.8027 35.5435 22.8249 35.5456 22.847 35.5456L29.0642 35.5445C29.1127 35.5424 29.1601 35.5403 29.2117 35.5403C29.5342 35.5403 29.825 35.4096 30.0379 35.1989L37.37 27.8668L37.3689 27.8657C37.8273 27.4073 37.8273 26.6644 37.3689 26.2061L37.3689 26.2059Z" fill="#FCFCFC"/>
<path d="M16.3442 27.7939C16.8026 28.2523 17.5455 28.2523 18.0039 27.796L18.0049 27.7971L23.221 22.5799C23.4297 22.3744 23.7152 22.2469 24.0314 22.2437H29.6659C30.0052 22.2437 30.2802 22.5187 30.2802 22.8581C30.2802 23.1984 30.0052 23.4734 29.6659 23.4734H25.357V23.4755C24.7089 23.4766 24.1841 24.0024 24.1841 24.6505C24.1841 25.2985 24.7089 25.8244 25.357 25.8254H30.865C31.8892 25.8254 32.885 25.62 33.5869 24.9645H33.5943L33.667 24.8918C33.6722 24.8865 33.6775 24.8823 33.6828 24.876L37.3782 21.2078C37.6037 20.9749 37.7165 20.6725 37.7102 20.3711L37.7112 16.1749C37.7112 15.5248 37.1854 14.9989 36.5363 15C36.2117 15 35.9177 15.1317 35.7059 15.3435C35.7028 15.3467 35.6996 15.3467 35.6964 15.3488L32.7617 18.2824C32.6384 18.4005 32.4782 18.4595 32.3191 18.4542C32.1674 18.4489 31.1105 18.4542 30.9292 18.4542L30.9303 18.4563C30.9092 18.4563 30.8871 18.4542 30.865 18.4542H24.6478C24.5993 18.4563 24.5519 18.4584 24.5002 18.4584C24.1778 18.4584 23.887 18.5891 23.6741 18.7998L16.3409 26.132L16.3419 26.133C15.8857 26.5924 15.8857 27.3353 16.3441 27.7937L16.3442 27.7939Z" fill="#FCFCFC"/>
</svg>
