<svg width="54" height="54" viewBox="0 0 54 54" fill="none" xmlns="http://www.w3.org/2000/svg">
<circle cx="27" cy="27" r="27" fill="#2D86BE"/>
<path d="M36.9562 35.897H35.9669V24.2728C35.9669 23.9677 35.7198 23.7198 35.4147 23.7198H31.9753V17.5522C31.9753 17.2471 31.7282 17 31.4231 17H23.1209C22.8158 17 22.5687 17.2471 22.5687 17.5522V18.9101H19.1315C18.8264 18.9101 18.5793 19.1581 18.5793 19.4631V35.8969H17.586C17.4339 35.8873 17.285 35.9412 17.1739 36.0458C17.0628 36.1497 17 36.2954 17 36.4475C17 36.6005 17.0628 36.7453 17.1739 36.85C17.285 36.9546 17.4339 37.0086 17.586 36.9989H36.9562C37.2476 36.9812 37.4746 36.7397 37.4746 36.4475C37.4746 36.1561 37.2476 35.9146 36.9562 35.8969L36.9562 35.897ZM30.523 25.4762C30.5238 25.3369 30.6357 25.2242 30.7742 25.2226H31.7176C31.8593 25.2226 31.9736 25.3369 31.9736 25.4778V26.422C31.9736 26.5629 31.8593 26.6772 31.7176 26.6772H30.7742C30.6333 26.6772 30.519 26.5629 30.519 26.422L30.523 25.4762ZM31.9776 27.8814V28.8248C31.9776 28.9657 31.8633 29.08 31.7224 29.08H30.7742C30.6333 29.08 30.519 28.9657 30.519 28.8248V27.8806C30.5166 27.8122 30.5431 27.7454 30.5914 27.6963C30.6397 27.6464 30.7049 27.619 30.7742 27.619H31.7176C31.7868 27.6182 31.8536 27.6456 31.9019 27.6955C31.951 27.7446 31.9776 27.8114 31.9751 27.8806L31.9776 27.8814ZM30.523 30.2833C30.5238 30.1449 30.6357 30.0322 30.7742 30.0297H31.7176C31.8593 30.0297 31.9736 30.144 31.9736 30.2857V31.2291C31.9736 31.37 31.8593 31.4851 31.7176 31.4851H30.7742C30.6333 31.4851 30.519 31.37 30.519 31.2291L30.523 30.2833ZM28.0148 27.8806C28.0132 27.8122 28.0397 27.7453 28.0872 27.6962C28.1355 27.6463 28.2015 27.619 28.2708 27.619H29.2142C29.355 27.619 29.4701 27.7333 29.4701 27.8741V28.8183C29.4701 28.9592 29.355 29.0735 29.2142 29.0735H28.2708C28.1291 29.0735 28.0148 28.9592 28.0148 28.8183L28.0148 27.8806ZM22.5701 20.6683H22.5709C22.5693 20.5998 22.5951 20.533 22.6434 20.4839C22.6917 20.434 22.7577 20.4066 22.8261 20.4066H23.7679C23.9087 20.4066 24.023 20.5209 24.023 20.6618V21.606C24.0255 21.6744 23.9989 21.7412 23.9506 21.7903C23.9023 21.8403 23.8371 21.8676 23.7679 21.8676H22.8261C22.6852 21.8676 22.5709 21.7533 22.5709 21.6124L22.5701 20.6683ZM22.5701 23.0735H22.5709C22.5709 22.9318 22.6852 22.8175 22.8261 22.8175H23.7679C23.9087 22.8175 24.023 22.9318 24.023 23.0735V24.0169C24.0222 24.1569 23.9079 24.2704 23.7679 24.2704H22.8261C22.6852 24.2704 22.5709 24.1561 22.5709 24.0152L22.5701 23.0735ZM22.5701 25.4787L22.5709 25.4779C22.5709 25.337 22.6852 25.2227 22.8261 25.2227H23.7679C23.9087 25.2227 24.023 25.337 24.023 25.4779V26.4221C24.0222 26.5621 23.9079 26.6756 23.7679 26.6756H22.8261C22.6852 26.6756 22.5709 26.5605 22.5709 26.4196L22.5701 25.4787ZM22.5701 27.8839L22.5709 27.8831C22.5685 27.8138 22.5943 27.7462 22.6426 27.6971C22.6909 27.6472 22.7569 27.619 22.8261 27.619H23.7679C23.9087 27.619 24.023 27.7333 24.023 27.8742V28.8184C24.0247 28.8868 23.9981 28.9528 23.9498 29.0019C23.9023 29.0502 23.8363 29.0776 23.7679 29.0776H22.8261C22.6852 29.0776 22.5709 28.9633 22.5709 28.8224L22.5701 27.8839ZM22.5701 30.2891L22.5709 30.2875C22.5709 30.1466 22.6852 30.0323 22.8261 30.0323H23.7679C23.9087 30.0323 24.023 30.1466 24.023 30.2875V31.2317C24.0214 31.3709 23.9071 31.4828 23.7679 31.4828H22.8261C22.6852 31.4828 22.5709 31.3685 22.5709 31.2276L22.5701 30.2891ZM21.5172 31.2325V31.2317C21.5172 31.3725 21.4029 31.4868 21.2621 31.4868H20.3187C20.2494 31.4885 20.1826 31.4611 20.1335 31.412C20.0844 31.3629 20.0579 31.2969 20.0587 31.2276V30.2835C20.0587 30.1426 20.173 30.0283 20.3138 30.0283H21.258C21.3989 30.0283 21.5132 30.1426 21.5132 30.2835L21.5172 31.2325ZM21.5172 28.8273V28.8265C21.5172 28.9673 21.4029 29.0824 21.2621 29.0824H20.3187C20.2494 29.0832 20.1834 29.0567 20.1343 29.0084C20.0852 28.9593 20.0579 28.8933 20.0587 28.8249V27.8807C20.0571 27.8114 20.0836 27.7438 20.1327 27.6947C20.1818 27.6448 20.2486 27.6182 20.3187 27.619H21.2621C21.4029 27.619 21.5172 27.7334 21.5172 27.8742V28.8273ZM21.5172 26.4221C21.5172 26.5629 21.4029 26.6772 21.2621 26.6772H20.3187C20.2494 26.678 20.1834 26.6515 20.1343 26.6032C20.0852 26.5549 20.0579 26.4889 20.0587 26.4196V25.4763C20.0587 25.3346 20.173 25.2203 20.3138 25.2203H21.258C21.3989 25.2203 21.5132 25.3346 21.5132 25.4763L21.5172 26.4221ZM21.5172 24.0169C21.5172 24.1577 21.4029 24.2728 21.2621 24.2728H20.3187C20.2494 24.2736 20.1834 24.2471 20.1351 24.1988C20.086 24.1513 20.0587 24.0853 20.0587 24.0169V23.0735C20.0587 22.9318 20.173 22.8175 20.3138 22.8175H21.258C21.3989 22.8175 21.5132 22.9318 21.5132 23.0735L21.5172 24.0169ZM21.5172 21.6116V21.6124C21.5172 21.7533 21.4029 21.8676 21.2621 21.8676H20.3187C20.2494 21.8684 20.1834 21.8427 20.1351 21.7944C20.086 21.7461 20.0587 21.6809 20.0587 21.6125V20.6683C20.0571 20.599 20.0836 20.5314 20.1327 20.4823C20.1818 20.4324 20.2486 20.4058 20.3187 20.4066H21.2621C21.4029 20.4066 21.5172 20.521 21.5172 20.6618L21.5172 21.6116ZM24.5777 35.897H22.0163V32.6902C22.0163 32.5477 22.1314 32.4326 22.2739 32.4326H24.3185C24.3861 32.4326 24.4521 32.46 24.5004 32.5083C24.5487 32.5566 24.5761 32.6218 24.5761 32.6902L24.5777 35.897ZM26.5313 31.2275C26.5313 31.3684 26.417 31.4827 26.2762 31.4827H25.332C25.1911 31.4827 25.0768 31.3684 25.0768 31.2275V30.2833C25.0768 30.1425 25.1911 30.0282 25.332 30.0282H26.2762C26.417 30.0282 26.5313 30.1425 26.5313 30.2833V31.2275ZM26.5313 28.8223C26.5313 28.9632 26.417 29.0775 26.2762 29.0775H25.332C25.1911 29.0775 25.0768 28.9632 25.0768 28.8223V27.8805C25.0752 27.8121 25.101 27.7453 25.1492 27.6962C25.1975 27.6463 25.2636 27.6189 25.332 27.6189H26.2762C26.417 27.6189 26.5313 27.7332 26.5313 27.8741L26.5313 28.8223ZM26.5313 26.4171V26.4179C26.5313 26.5588 26.417 26.6731 26.2762 26.6731H25.332C25.1911 26.6731 25.0768 26.5588 25.0768 26.4179V25.4761C25.0768 25.3345 25.1911 25.2202 25.332 25.2202H26.2762C26.417 25.2202 26.5313 25.3345 26.5313 25.4761V26.4171ZM26.5313 24.0119V24.0127C26.5313 24.1536 26.417 24.2679 26.2762 24.2679H25.332C25.1911 24.2679 25.0768 24.1536 25.0768 24.0127V23.0733C25.0768 22.9317 25.1911 22.8174 25.332 22.8174H26.2762C26.417 22.8174 26.5313 22.9317 26.5313 23.0733V24.0119ZM26.5313 21.6067V21.6075C26.5313 21.7492 26.417 21.8635 26.2762 21.8635H25.332C25.1911 21.8635 25.0768 21.7492 25.0768 21.6075V20.6681C25.0752 20.5997 25.101 20.5329 25.1492 20.4838C25.1975 20.4339 25.2636 20.4065 25.332 20.4065H26.2762C26.417 20.4065 26.5313 20.5208 26.5313 20.6617L26.5313 21.6067ZM29.4678 31.2275C29.4678 31.3684 29.3535 31.4827 29.2126 31.4827H28.2708C28.1292 31.4827 28.0149 31.3684 28.0149 31.2275V30.2833C28.0149 30.1425 28.1292 30.0282 28.2708 30.0282H29.2142C29.3551 30.0282 29.4702 30.1425 29.4702 30.2833L29.4678 31.2275ZM29.4678 26.4204V26.4196C29.4678 26.5605 29.3535 26.6756 29.2126 26.6756H28.2708C28.1292 26.6756 28.0149 26.5605 28.0149 26.4196V25.4762C28.0149 25.3345 28.1292 25.2202 28.2708 25.2202H29.2142C29.3551 25.2202 29.4702 25.3345 29.4702 25.4762L29.4678 26.4204ZM32.5283 35.8995L29.9685 35.8987V32.6902C29.9685 32.5477 30.0836 32.4326 30.2261 32.4326H32.2707C32.3383 32.4326 32.4043 32.46 32.4526 32.5083C32.5009 32.5566 32.5283 32.6218 32.5283 32.6902L32.5283 35.8995ZM34.4835 31.2275C34.4835 31.3684 34.3692 31.4827 34.2283 31.4827H33.2841C33.1433 31.4827 33.029 31.3684 33.029 31.2275V30.2833C33.029 30.1425 33.1433 30.0282 33.2841 30.0282H34.2283C34.3692 30.0282 34.4835 30.1425 34.4835 30.2833V31.2275ZM34.4835 28.8223C34.4835 28.9632 34.3692 29.0775 34.2283 29.0775H33.2841C33.1433 29.0775 33.029 28.9632 33.029 28.8223V27.8805C33.0274 27.8121 33.0531 27.7453 33.1014 27.6962C33.1497 27.6463 33.2157 27.6189 33.2841 27.6189H34.2283C34.2968 27.6189 34.3628 27.6463 34.4111 27.6962C34.4594 27.7453 34.4851 27.8121 34.4835 27.8805L34.4835 28.8223ZM34.4835 26.4171V26.4179C34.4835 26.5588 34.3692 26.6731 34.2283 26.6731H33.2841C33.1433 26.6731 33.029 26.5588 33.029 26.4179V25.4761C33.029 25.3345 33.1433 25.2202 33.2841 25.2202H34.2283C34.3692 25.2202 34.4835 25.3345 34.4835 25.4761V26.4171Z" fill="white"/>
</svg>
