<?xml version="1.0" encoding="utf-8"?>
<!-- Generator: Adobe Illustrator 25.0.0, SVG Export Plug-In . SVG Version: 6.00 Build 0)  -->
<svg version="1.1" id="Layer_1" xmlns="http://www.w3.org/2000/svg" xmlns:xlink="http://www.w3.org/1999/xlink" x="0px" y="0px"
	 viewBox="0 0 144 299" style="enable-background:new 0 0 144 299;" xml:space="preserve">
<style type="text/css">
	.st0{fill:#2E6B6C;}
	.st1{fill:#3F2639;}
	.st2{fill:#ECC4AE;}
	.st3{fill:#245657;}
	.st4{fill:#F3E3CA;}
	.st5{fill:#3F2D3A;}
	.st6{fill:#F0E0C7;}
	.st7{fill:#483042;}
	.st8{fill:#D7C5B2;}
	.st9{fill:#E4AE92;}
	.st10{fill:#695665;}
	.st11{fill:#5C4450;}
	.st12{fill:#4F3848;}
	.st13{fill:#36282E;}
	.st14{fill:#D3847F;}
</style>
<g>
	<path class="st0" d="M78.2,97c0.9-0.5,1.9-0.6,3-0.5c0.9,0.1,1.6-0.2,2.4-0.6c5.8-3.2,11.4-6.8,16.5-11.1c0.8-0.7,1.7-1.3,2.5-1.9
		c-0.1,1.1,0.5,1.1,1.3,0.9c2.2-0.5,4.3-1.3,6.2-2.5c0.5-0.3,1-0.7,1.2-1.3c1.9-4.9,3.8-9.7,5.7-14.5c2-5.1,3.9-10.3,5.8-15.4
		c0.2-0.4,0.3-0.8-0.2-1.1c1.4-3.3,2.6-6.8,5.2-9.4c2.7-1.2,5.5-2.1,8.5-1.4c2,2.6,2.8,5.5,2.3,8.8c-1.6,10.3-4.1,20.4-6,30.6
		c-0.4,1.8-1.3,3.5-2.2,5.1c-0.6-0.1-1,0.1-1.5,0.5c-2.7,2.5-5.2,5.1-7.7,7.7c-5.3,5.2-9.8,11.1-15.4,16c-2.1,1.8-4.2,3.6-6.3,5.4
		c-1.1,0.9-1.7,1.9-1.7,3.4c-0.1,1.2,0.5,2.5,0.2,3.7c-0.4,1.9-0.1,3.9-0.2,5.8c0,0.6,0,1.2,0.8,1.4c0.2,0.3,0.2,0.7,0.1,1
		c-0.7,0-0.6,0.6-0.6,1c0.1,1.2,0.3,2.4,0.5,3.6c0.1,0.4-0.1,0.9,0.5,1c0.6,6.5,2.5,12.7,4.6,18.9c1.2,3.5,2.7,6.9,3.8,10.5
		c0.8,2.5,0.4,5-0.8,7.3c-1.5,2.9-3.7,5.3-6.3,7.2c-0.8-0.1-1.4,0.3-2,0.7c-1.3,0.8-2.6,1.7-4,2.3c-6.1,2.7-12.5,4.1-19,5.4
		c-4.1,0.8-8.3,1.2-12.4,1.6c-4.1,0.4-8.2,0.5-12.1-1.3c-1.4-0.6-2.9-1.1-4.5-1c-0.3-0.5-0.6-0.9-1-1.2c-2.9-1.9-4.1-4.6-4-8
		c0.6,0,0.8-0.3,0.8-0.9c0-0.6-0.1-1.2,0.1-1.8c0.8-2.8,0.8-5.7,1.2-8.5c0.4-2.6,0.6-5.2,0.8-7.8c0.3-3,0.7-6,1-9.1
		c0.3-3,0.4-6,0.8-9c0.5-4.1,0.4-8.3,0.1-12.4c-0.2-3.3-0.7-6.6-0.9-10c-0.3-4.4-0.9-8.7-2.4-12.9c-2.5-7.2-4.9-14.5-7.9-21.5
		c-1.8-4.2-3.8-8.4-6-12.4c-2.1-3.7-4.2-7.5-5.9-11.4c-1.4-3.2-2.7-6.3-4.7-9.2c-1.3-1.9-2.8-3-5.1-2.6c-0.1-3.3,0.4-6.5,1.1-9.7
		c1.1-5.4,3-10.6,4.6-15.8c0.1-0.4,0.4-0.8,0.5-1.1c0.5-0.3,1-0.4,1.5-0.5c2.9-0.5,5.7-0.2,8.4,1.2c1.2,0.9,1.5,2,1.4,3.5
		c-0.4,5.9-0.4,11.7,1.4,17.4c1.2,3.9,2.7,7.6,4,11.4c1.7,4.9,3.5,9.7,5.6,14.3c2.5,5.4,5.2,10.8,8.7,15.8c2.9,4.1,6.9,7,10.1,10.7
		c1.5,1.8,3.6,2.8,5.4,4.2c2,2.3,4.3,4.2,6.4,6.3c0.4,0.5,0.8,0.1,1-0.3C74.8,101.5,76.5,99.2,78.2,97z M91.3,131.2
		c1.5-0.2,3-0.4,4.4-1.3c0.4-0.3,0.7-0.5,0.5-1c-0.2-0.5-0.6-0.2-1-0.2c-1.7,0.4-3.3,0.8-5,0.6c-1.8-0.1-3-1.1-3.1-2.7
		c-0.1-2.9-1.3-5.6-2-8.4c-0.1-0.3-0.1-0.7-0.5-0.6c-0.4,0.1-0.2,0.4-0.2,0.7c0.5,2.9,1,5.7,1.4,8.6c0.2,1.2,0.5,2.4,1.7,3.1
		C88.8,130.7,90,131,91.3,131.2z M64.9,110.8c0.6-0.5,0.9-0.8,1.2-1.1c1.3-1.3,2.6-2.2,4.6-1.6c1.1,0.3,1.8-0.7,1.2-1.8
		c-0.7-1.3-1.8-2.1-3.1-2.7c-0.5-0.2-1.2-0.1-1.4,0.5C66.5,106.2,65.4,108.2,64.9,110.8z M80.9,110.2c0.3,0,0.6,0.4,0.8,0
		c0.2-0.4-0.1-0.6-0.4-0.9c-1.6-1.3-3-2.7-4.2-4.4c-0.4-0.6-1.1-0.4-1.6-0.1c-0.9,0.6-1.8,2.6-1.7,3.7c0.1,0.5,0.3,0.7,0.8,0.5
		c1.5-0.7,2.9-0.3,4.2,0.6C79.4,110,80.1,110.3,80.9,110.2z"/>
	<path class="st1" d="M46.3,184.7c1.6-0.1,3.2,0.4,4.5,1c3.9,1.8,8,1.7,12.1,1.3c4.2-0.4,8.3-0.8,12.4-1.6c6.5-1.3,12.9-2.7,19-5.4
		c1.4-0.6,2.6-1.5,4-2.3c0.6-0.4,1.2-0.8,2-0.7c0.5,0.9,1.4,1.3,2.2,1.9c1.8,1.5,3.8,2.6,5.4,4.2c-0.6,0.7-0.4,1.3,0.2,1.7
		c1.2,0.9,2.3,1.8,3.6,2.5c1.1,0.6,2.1,1.6,3.5,1.7c0.4,0.1,0.6,0.6,1.1,0.5c0.1,0,0.1,0.1,0.2,0.1c0.2,0.5,0.5,0.9,1.1,0.9
		c0.3,0.3,0.7,0.6,1,0.8c0,0.3,0.2,0.5,0.5,0.5c0.8,0.7,1.5,1.4,2.3,2.1c0.5,0.9,1.1,1.6,2.1,2c0.9,0.7,1.6,1.4,2.3,2.2
		c0,0.7,0.5,1.1,0.9,1.5c1.2,1.1,2.3,2.4,3.1,3.9c0,0.4,0.1,0.8,0.3,1.1c0.9,1.5,1.7,3,2.5,4.6c1.8,3.7,2.6,7.6,2.7,11.7
		c0,1.3-0.2,2.8,0.4,4.1c-0.1,1.2-0.3,2.4-0.6,3.6c-1,0.8-1.2,2.1-1.6,3.2c-3.1,7.5-7,14.4-11.6,21c-0.6,0.8-1.6,1.5-1.3,2.8
		c-0.1,0.1-0.2,0.2-0.2,0.3c-1.4,0.7-2.3,1.8-3.1,3c-0.9,0.9-1.9,1.7-2.8,2.6c-0.3,0-0.5,0.1-0.5,0.5c-1.3,1.3-2.8,2.5-4.3,3.6
		c-1.2,0.5-2.2,1.3-2.9,2.4c-1,0.9-2,1.8-3,2.7c-0.2,0-0.3,0-0.5,0c-0.5-0.3-0.8-0.2-0.8,0.5c-0.5,0.1-1,0.2-1.5,0.3
		c-0.4-0.4-0.6-0.3-0.8,0.2c-0.6,0.2-1.2-0.2-1.8,0.3c-0.7,0-1.4-0.1-2-0.4c-0.1-0.3-0.4-0.4-0.7-0.2c-0.7-0.2-1.4-0.5-1.9-1.2
		c0-0.7-0.5-1.2-0.8-1.7c0-0.2,0-0.4-0.3-0.5c-0.5-1-1.1-1.9-1.3-3.1c0-0.6-0.5-1-0.8-1.5c0.1-0.2,0.3-0.5,0.4-0.7
		c0.3,0,0.5-0.3,0.6-0.5c0.2,0,0.4-0.1,0.5-0.3c1.3-1.9,2-4.1,3.3-6c3.3-4.6,6.9-9,10-13.8c0.5-0.8,1.3-1.5,1.2-2.6l0,0
		c0.5,0,0.5-0.4,0.5-0.8c0.1-0.3,0.3-0.5,0.2-0.8c0-0.1,0-0.1,0.1-0.2c0.3,0,0.5-0.2,0.4-0.5c0-0.1,0.1-0.1,0.1-0.2
		c0.4-0.1,0.7-0.4,0.6-0.9c0-0.1,0-0.1,0.1-0.2c0.4,0,0.5-0.3,0.4-0.6c0-0.1,0-0.1,0.1-0.2c0.3,0,0.5-0.3,0.4-0.6
		c0.1-0.2,0.3-0.5,0.4-0.7c0.3-0.1,0.4-0.3,0.4-0.6c0.2-0.5,0.4-1,0.6-1.5c0.2,0,0.3-0.2,0.4-0.4c1.1-1.9,0.7-3.9,0.4-6
		c-0.2-1.4-0.7-2.4-1.9-3.1c-0.6-0.4-1.1-0.9-1.5-1.5c-1.7-2.4-4.3-3.4-7-4.1c-2.5-0.6-5.1-0.6-7.6-1c-1.4-0.2-2.8-0.3-4.3-0.5
		c-0.8-0.1-1.7-0.2-1.8,1c-0.2,3.3-0.3,6.7-0.8,10c-0.3,2.5-0.5,5.1-0.9,7.7c-0.5,3.1-1.1,6.1-1.6,9.2c-0.6,4.1-1.1,8.2-2.1,12.2
		c-0.8,3.5-2.7,6.3-5.4,8.6c-1.6,1.4-3.4,2.3-5.3,3.1c-3.9,1.6-7.9,2.9-11.9,3.8c-1.4,0.3-3,0.3-4.3,1.1c-0.2,0.2-0.5,0.2-0.8,0.1
		c-0.5-0.3-0.9-0.5-1.3,0.2c-0.2,0-0.3,0-0.5,0.1c-0.5-0.2-1.1-0.5-1.5,0.2c-0.2,0-0.3,0-0.5,0c-0.7-0.2-1.4-0.6-2,0.2
		c-0.2,0-0.3,0-0.5,0c-1.1-0.2-2.2-0.6-3.3,0.2c-0.5,0-1,0-1.5,0.1c-0.1-0.1-0.3-0.2-0.4-0.2c-2.6,0.2-5.3,0.4-7.9,0.6
		c-0.1,0-0.2,0.2-0.3,0.4c-1.1,0.1-2.2,0.1-3.3,0.1c-1.4-0.5-2.8-0.2-4.3-0.2c-4.5,0-7.9-2-10.5-5.5c-2.3-3.1-1.2-7,1.3-8.8
		c2-1.5,4.4-2.2,6.9-2.1c1.9,0.1,3.7-0.1,5.6-0.3c5-0.7,9.9-1.7,14.6-3.5c4.5-1.7,8.8-3.9,12.8-6.7c1-0.7,1.7-1.6,1.9-2.8
		c0.5-2.9,1.7-5.7,1.3-8.8c-0.5-4-0.7-8.1-1.7-12.1c-1.7-6.8-3.8-13.4-5.7-20.1c-0.6-2.4-1.8-4.5-2.9-6.6c-0.1-0.3-0.4-0.5-0.7-0.5
		C48.7,192.1,47.4,188.4,46.3,184.7z"/>
	<path class="st2" d="M78.2,97c-1.7,2.2-3.4,4.4-5.1,6.6c-0.3,0.4-0.6,0.7-1,0.3c-2.1-2.2-4.4-4.1-6.4-6.3c0.5-1.4,0.3-2.8,0.3-4.2
		c0-0.6-0.3-1-0.9-1.3c-4.8-2.4-8.1-6.4-10.8-10.8c-1.4-2.3-1.4-2.4-3.8-3.5c-2.8-1.3-4.1-3.7-4.4-6.7c-0.2-1.8,0.3-3.5,0.3-5.3
		c0.6-0.1,0.8-0.6,1.1-1c1.6-1.9,3.6-2,5.6-0.5c1.1,0.9,1.9,2,2.7,3.2c0.3,0.4,0.6,1,1.2,0.8c0.6-0.2,0.3-0.8,0.3-1.2
		c-0.1-3.1-0.2-6.2-0.3-9.3c0-1,0.2-1.1,1.1-0.9c2.1,0.4,3.7-0.6,5.5-1.8c-1-0.3-1.7-0.4-2.4-0.7c-0.2-0.1-0.5-0.2-0.5-0.5
		c0-0.2,0.2-0.4,0.4-0.4c3-0.9,5.4-2.8,7.9-4.5c0.8-0.6,1.7-0.7,2.6-0.8c2.4,0,4.6,0.7,6.8,1.3c5.4,1.6,10.7,3.7,16.5,2.8
		c0.1,2.3,0.9,4.6,1.2,6.9c0.7,5.9,1.5,11.8-0.4,17.6c-1.9,6-5.4,11-11,14.2c-2,1.2-4,2.1-6.2,2.9c-0.5,0.2-1.1,0.3-1.6,0.3
		c-2.6,0.2-5.1,0.8-7.5-0.7c-0.3-0.2-0.8-0.2-1,0.2c-0.3,0.5,0,0.8,0.4,1.1c0.4,0.3,0.9,0.6,1.4,0.8c2.4,0.9,4.8,1,7.3,0.9
		C77.7,96.7,77.9,97,78.2,97z M79.2,86.5c4,0.6,8.1-2.4,9.5-6.5c0.3-0.7,0.4-1.6-0.2-2.3c-0.1-0.1-0.1-0.2-0.2-0.3
		c-1-1.2-1.8-1.3-3.1-0.1c-0.5,0.4-0.9,0.8-1.4,1.2c-2,0.5-3.9,0.3-5.8-0.5c-0.8-0.4-1.7-0.8-2.6-0.7c-0.2,0-0.3-0.1-0.5-0.1
		c-0.3-0.3-0.7-0.3-1,0c-1.1,0.1-1.6,0.7-1.8,1.7c-0.3,0.8-0.3,1.5,0,2.3c0.1,0.7,0.4,1.3,0.9,1.9C74.5,85.3,76.5,86.5,79.2,86.5z
		 M84.1,65.5c0-0.6,0-1.3,0-1.9c0-0.6,0.1-1.3-0.8-1.3c-0.8,0-0.8,0.7-0.7,1.2c0.2,1.8-0.4,3.5,0.5,5.3c0.4,0.8,0.6,1,1.3,1.1
		c0.2,0,0.5,0.1,0.7,0.2c0.8,0.3,0.8,0.7,0.3,1.3c-1.1,1.2-2.4,2-4.1,2c-0.6,0-1.2,0-1.1,0.8c0,0.7,0.6,0.7,1.1,0.7
		c2.5,0,4.3-1.4,5.7-3.3c0.8-1.1,0.1-2.4-1.2-2.8c-0.6-0.2-1.6-0.1-1.9-0.5c-0.3-0.5,0-1.4,0-2.1C84.1,66.1,84.1,65.8,84.1,65.5z
		 M66.6,59.6c1.1-0.2,2-0.8,3-0.7c1,0,2,0.1,3,0.2c1,0.2,1.2-0.2,1-1.1c-0.2-0.8-0.6-1.1-1.3-1.2C70.3,56.3,68.1,57.3,66.6,59.6z
		 M68.7,64.7c0,0.5,0.1,0.9,0.1,1.2c0.1,0.7,0.4,1.3,1.1,1.3c0.8,0,1.3-0.6,1.4-1.4c0.1-0.8,0-1.7-0.3-2.5c-0.2-0.6-0.5-1.1-1.3-1
		c-0.7,0.1-0.8,0.7-0.9,1.2C68.8,64,68.8,64.4,68.7,64.7z M92.4,57.9c0.2,0,0.6,0.1,0.7-0.3c0.2-0.3-0.1-0.6-0.4-0.7
		c-0.6-0.4-1.2-0.9-1.8-1.2c-1-0.5-2.9,0-3.5,0.9c-0.3,0.4-0.4,0.8-0.2,1.2c0.1,0.3,0.4,0.2,0.7,0.1C89.4,57.5,90.8,57.6,92.4,57.9z
		 M91,64.3C91,64.3,91,64.3,91,64.3c0-0.4,0-0.8,0-1.1c-0.1-0.6-0.4-1.2-1.1-1.2c-0.7,0-1,0.5-1.1,1.1c-0.2,0.9-0.1,1.8,0.4,2.6
		c0.2,0.4,0.6,0.6,1.1,0.5c0.5-0.1,0.7-0.4,0.8-0.9C91,65,91,64.6,91,64.3z"/>
	<path class="st3" d="M13,46.2c2.4-0.4,3.8,0.7,5.1,2.6c2,2.9,3.4,6,4.7,9.2c1.7,3.9,3.8,7.7,5.9,11.4c2.2,4,4.2,8.1,6,12.4
		c3,7,5.4,14.3,7.9,21.5c1.5,4.2,2.1,8.5,2.4,12.9c0.2,3.3,0.7,6.6,0.9,10c0.2,4.1,0.4,8.3-0.1,12.4c-0.4,3-0.5,6-0.8,9
		c-0.3,3-0.6,6-1,9.1c-0.3,2.6-0.5,5.2-0.8,7.8c-0.4,2.8-0.3,5.7-1.2,8.5c-0.2,0.5-0.1,1.2-0.1,1.8c0,0.6-0.2,0.9-0.8,0.9
		c-0.7-2-1-4.1-1-6.1c0-7.2-0.3-14.4,0.4-21.7c0.9-9.5,1.1-19.1,1-28.6c0-1.5-0.4-2.9-1.1-4.3c-2.9-6-6.5-11.6-9.6-17.5
		c-3.6-6.8-6.6-13.9-9.5-21c-2.3-5.6-4.6-11.1-6.2-17c-0.5-1.8-1.4-3.6-1.8-5.4C13,51.4,12.8,48.8,13,46.2z"/>
	<path class="st4" d="M63.4,28.9c3.4-1,6.9-1.9,10.5-2.3c2.3-0.3,4.6-0.2,7-0.2c0.4,0,0.9-0.1,1.2,0.2c1.3,2.5,1.8,5.2,2.7,7.8
		c0.1,0,0.2,0,0.3,0c0.1-2.2,0.2-4.5,0.3-6.7c3.7,1.8,6.7,4.2,7.1,8.7c0.2,2.1,0.7,4.2,1.3,6.3c-4.1,0.5-8.1,0.9-12.2,0
		c-5.3-1.1-10.7-1-16,0.3c-3.3,0.8-6.4,2.2-9,4.4c-1.6,1.3-2.6,3.2-4.6,4.2c-0.3,0.1-0.5,0.5-0.7,0.8c-1,2.4-3.2,3.9-4.5,6
		c-1.1-0.4-1.1-1.5-1.4-2.4c0.4-0.3,0.2-0.8,0.2-1.2c0-1.9,0-3.8,0-5.7c0.1-2.4,0.6-4.6,2.6-6.2c1.7-1.4,3.3-2.9,4.9-4.4
		c2.9-2.5,5.8-5,8.7-7.5C62.4,30.2,63.2,29.8,63.4,28.9z"/>
	<path class="st5" d="M46.8,58.2c1.3-2.2,3.5-3.6,4.5-6c0.1-0.3,0.4-0.6,0.7-0.8c2-0.9,3-2.8,4.6-4.2c2.6-2.2,5.7-3.6,9-4.4
		c5.3-1.3,10.7-1.4,16-0.3c4.1,0.9,8.2,0.5,12.2,0c2.3-0.2,4.6,0,6.8-0.8c0.9-0.3,1.4-0.1,1.2,1c-0.3,1.9-0.7,3.8-1.5,5.5
		c-1.1,2.2-3.1,3.2-5.2,4c-5.8,0.9-11.1-1.2-16.5-2.8c-2.2-0.7-4.5-1.4-6.8-1.3c-1,0-1.8,0.2-2.6,0.8c-2.5,1.7-4.9,3.6-7.9,4.5
		c-0.2,0.1-0.4,0.2-0.4,0.4c0,0.3,0.2,0.4,0.5,0.5c0.7,0.2,1.5,0.4,2.4,0.7c-1.8,1.3-3.4,2.2-5.5,1.8c-0.9-0.2-1.2,0-1.1,0.9
		c0.2,3.1,0.2,6.2,0.3,9.3c0,0.4,0.3,1-0.3,1.2c-0.6,0.2-0.9-0.4-1.2-0.8c-0.8-1.1-1.6-2.3-2.7-3.2c-1.9-1.6-3.9-1.4-5.6,0.5
		c-0.3,0.4-0.5,0.9-1.1,1c-0.3-2.1-0.8-4.1-0.3-6.3C46.3,59,46.4,58.6,46.8,58.2z"/>
	<path class="st6" d="M93.8,270.1c0.5,0.7,1.2,0.9,1.9,1.2c0.2,0.2,0.4,0.4,0.7,0.2c0.6,0.3,1.3,0.4,2,0.4c0.2,0.3,0.5,0.1,0.7,0.2
		c0.1,1.1,1.3,1.8,1.3,3c-1.5-0.6-3-0.2-4.4,0.4c-0.6,0.2-1.2,0.5-0.9,1.3c0.3,0.8,0.9,0.7,1.6,0.5c1-0.4,2.1-0.7,3.2-0.5
		c0.6,0.1,0.9-0.3,1.2-0.7c0.7,0.8,1.1,1.7,1.4,2.7c0.5,1.6,1.6,3,2.1,4.7c-1.4-0.1-2.7,0.4-3.8,1.1c-0.5,0.3-0.8,0.7-0.6,1.2
		c0.3,0.6,0.8,0.7,1.4,0.4c0.8-0.3,1.5-0.8,2.3-1c0.7-0.1,1.1-0.5,1.2-1.3c0.4,0,0.4,0.3,0.5,0.6c0.1,0.6,0.4,1.1,0.9,1.5
		c1.8,1.1,2.2,2.9,2.6,4.7c-0.1,0-0.3-0.1-0.4-0.1c-0.8-0.7-1.5-0.7-2.3-0.1c-1.7,1.1-2.7,2.9-4,4.4c-0.6,0.5-1.1,0.6-1.8,0.1
		c-0.6-0.4-1.2-1-2-0.9c-0.7-0.5-1.4-1-2.1-1.5c-2.9-2.9-5.7-5.8-8.6-8.7c-0.1-0.3-0.2-0.5-0.5-0.6c-0.2-0.4-0.4-0.7-0.8-0.9
		c-0.1-0.3-0.2-0.5-0.5-0.6c-0.2-2.1,0.2-4.2-0.1-6.2c-0.5-2.3-0.4-4.3,1.6-5.9c0.9-0.8,1.6-1.6,2.3-2.6c0.2-0.2,0.4-0.4,0.6-0.7
		c0.2-0.2,0.4-0.7,0.7-0.7c0.5,0,0.4,0.6,0.5,0.9C91.9,268,92.4,269.3,93.8,270.1z M103,281.8c-0.1-0.7-0.6-0.9-1.2-1
		c-1.4-0.1-2.6,0.5-3.8,1.3c-0.5,0.4-1,0.8-0.5,1.5c0.4,0.7,1,0.4,1.6,0.1c0.9-0.6,1.9-1.1,3.1-1.1
		C102.6,282.6,102.9,282.3,103,281.8z M100.3,277.7c-0.8,0-2.4,0.6-3.2,1.1c-0.5,0.3-0.9,0.7-0.6,1.4c0.4,0.6,0.9,0.5,1.4,0.2
		c0.8-0.4,1.5-0.8,2.4-0.9c0.7,0,1.4-0.1,1.3-1C101.6,277.7,100.8,277.8,100.3,277.7z"/>
	<path class="st7" d="M50.2,195.7c0.3,0,0.5,0.2,0.7,0.5c1.1,2.1,2.2,4.2,2.9,6.6c1.8,6.7,3.9,13.4,5.7,20.1c1,4,1.2,8.1,1.7,12.1
		c0.4,3.1-0.8,5.9-1.3,8.8c-0.2,1.2-1,2.1-1.9,2.8c-3.9,2.8-8.2,5-12.8,6.7c-4.7,1.8-9.6,2.8-14.6,3.5c-1.8,0.3-3.7,0.4-5.6,0.3
		c-2.5-0.1-4.9,0.6-6.9,2.1c-2.5,1.8-3.6,5.7-1.3,8.8c2.6,3.5,6,5.5,10.5,5.5c1.4,0,2.9-0.3,4.3,0.2c-4.5,0.4-9,0.4-13.2-1.8
		c-2.4-1.9-4-4.2-4.5-7.3c-0.3-2.1,0.1-4,1.2-5.9c-2.1-0.2-3.9,0.4-5.8,0.8c-0.4,0.1-0.4,0.4-0.5,0.8c-0.3,3.1-2.1,5.2-4.5,6.9
		c-0.7,0.5-1,1-1.1,1.9c-0.4,5.2-0.5,10.3-1,15.5c-0.3,3.1-0.5,2.9,2.9,2.4c2.9-0.5,4,0,5,2.8c-1,1.8-2.6,2.5-4.7,2.1
		c-1.9-0.4-3.8-2.1-3.9-4c-0.2-1.9-0.3-3.9-0.1-5.8c0.4-3.7,0.3-7.5,0.2-11.2c-0.2-3.5,0.6-6.8,2.7-9.7c1.4-1.9,3-3.2,5.5-3.5
		c2.1-0.3,4.2-0.6,6.3-0.1c0.2,0,0.4,0.1,0.5,0c3.9-1.9,8.2-1.7,12.4-2c8.4-0.5,16-3.4,23.1-7.5c2.9-1.7,5.4-3.8,7.2-6.7
		c1.5-2.4,2-4.9,1.3-7.7c-2.1-9-3.9-18-6.7-26.8C52.7,203.1,51.4,199.4,50.2,195.7z"/>
	<path class="st6" d="M10.2,289.8c-1.1-2.8-2.1-3.2-5-2.8c-3.3,0.5-3.1,0.7-2.9-2.4c0.5-5.2,0.6-10.3,1-15.5
		c0.1-0.8,0.4-1.4,1.1-1.9c2.4-1.7,4.1-3.9,4.5-6.9c0-0.3,0.1-0.7,0.5-0.8c1.8-0.4,3.7-1,5.8-0.8c-1.2,1.9-1.5,3.8-1.2,5.9
		c0.5,3.1,2,5.4,4.5,7.3c-0.1,0.9-0.5,1.8-1,2.6c-0.6-1.7-3.2-3.6-5-3.6c-0.5,0-1.1,0.1-1.1,0.7c-0.1,0.7,0.4,0.8,1,0.9
		c1.5,0.1,2.6,1,3.5,2c0.3,0.4,0.6,0.7,1.1,0.9c0,0.5,0,1-0.6,1.1c-1.1-1.1-2.3-2.1-3.6-2.9c-0.5-0.3-1-0.5-1.5-0.6
		c-0.5,0-1,0.1-1,0.7c-0.1,0.5,0.3,0.8,0.7,0.9c1.9,0.4,3.2,1.7,4.5,2.9c0.1,0.2,0.2,0.5,0.4,0.7c0,0.4-0.1,0.6-0.5,0.8
		c-1.2-0.7-2.2-1.6-3.5-2.1c-0.6-0.2-1.1-0.3-1.4,0.4c-0.3,0.6,0.2,0.9,0.7,1.1c1.4,0.5,2.5,1.4,3.6,2.3c-0.1,0.6-0.3,1.2-0.8,1.7
		c-0.6-0.4-1.2-0.8-1.8-1.1c-0.8-0.4-1.5-1-2.4-1.1c-0.5-0.1-1,0.1-1.1,0.6c-0.1,0.5,0.1,0.8,0.6,0.9c1.6,0.3,2.8,1.4,4.2,2.2
		C12.6,286.1,12,288.3,10.2,289.8z"/>
	<path class="st2" d="M29.2,20.3c-2.7-1.4-5.4-1.7-8.4-1.2c-0.5,0.1-1.1,0.1-1.5,0.5c-0.3-1-0.6-1.9-0.7-2.9
		c-0.2-1.4-0.5-2.7-1.5-3.9c-2.6-3.4-1.4-5.4,1.8-8.2c2.4-2,5.3-2.7,8.3-3.2c2-0.3,3.2,0.8,4,2.5c-0.9,0.4-1.7,0.9-2.6,1.3
		c-0.9,0.4-1.7,1.1-1.7,2.1c0,1,0.7,1.5,1.7,1.8c0.7,0.2,0.6,0.6,0.1,1c-0.7,0.6-1.7,0.2-2.1-0.8c-0.7-1.7-1.5-3.3-2.9-4.5
		c-0.2-0.2-0.5-0.4-0.8-0.2c-0.2,0.2,0,0.5,0.1,0.7c0.2,0.3,0.4,0.4,0.6,0.7c1.1,1.5,2.2,3,2.2,5c0,0.8,0,1.9-0.9,2
		c-0.8,0.1-1.1-0.9-1.4-1.6c-0.6-1.3-1.1-2.7-2-3.8c-0.3-0.3-0.6-0.9-1.1-0.5c-0.4,0.4,0.1,0.8,0.3,1.2c1,1.4,1.5,3,1.8,4.7
		c0.1,0.4,0,0.8-0.4,1c-0.5,0.2-0.8-0.2-1-0.5c-0.2-0.4-0.4-0.8-0.6-1.1c-0.4-0.7-0.6-1.6-1.3-2.2C18.8,9.9,18.4,9.5,18,10
		c-0.3,0.4,0,0.7,0.2,1c0.9,1.1,1.7,2.2,2.5,3.3c0.7,1.1,1.4,1.3,2.3,0.2c0.5-0.6,1-0.8,1.7-1c1.9-0.5,3.2-2.1,5-2.9
		c0.1,0,0.1-0.1,0.1-0.2C31,8.8,31,8.8,32.7,10c0.3,0.2,0.5,0.3,0.8,0.1c0.3-0.2,0.2-0.5,0.2-0.8c-0.1-0.6-0.4-1-1-0.9
		c-1.1,0.1-2.1-0.3-3.2-0.3c-0.7,0-1.2-0.4-1.4-0.9c-0.2-0.6,0.2-1.2,0.7-1.5c0.6-0.4,1.3-0.7,2-0.8c0.7-0.1,0.8-0.5,0.7-1
		c3.3,0.4,4.6,2.3,3.7,5.5c-1.1,3.8-3,7.1-5.5,10C29.5,19.7,29.3,20,29.2,20.3z"/>
	<path class="st3" d="M98.6,126.5c-0.8-0.2-0.8-0.8-0.8-1.4c0.1-1.9-0.2-3.9,0.2-5.8c0.2-1.2-0.3-2.4-0.2-3.7
		c0.1-1.4,0.7-2.5,1.7-3.4c2.1-1.8,4.3-3.6,6.3-5.4c5.6-4.9,10.1-10.8,15.4-16c2.6-2.5,5.1-5.2,7.7-7.7c0.5-0.4,0.9-0.6,1.5-0.5
		c-2,4.3-4.8,8-8.1,11.4c-6.7,7-13.8,13.6-20.8,20.3c-3,2.9-3,2.8-3,7C98.6,123.1,98.6,124.8,98.6,126.5z"/>
	<path class="st3" d="M122.7,49c0.5,0.3,0.3,0.7,0.2,1.1c-1.9,5.1-3.8,10.3-5.8,15.4c-1.9,4.9-3.8,9.7-5.7,14.5
		c-0.3,0.7-0.7,1-1.2,1.3c-1.9,1.2-4,2-6.2,2.5c-0.7,0.2-1.4,0.1-1.3-0.9c6.7-10.4,13.9-20.6,19.1-32
		C122.1,50.3,122.3,49.6,122.7,49z"/>
	<path class="st2" d="M136.4,38.2c-3-0.7-5.8,0.3-8.5,1.4c0-1.6-1.2-2.5-2.1-3.6c-0.5-0.7-1.2-1.3-1.7-2c-0.6-0.6-0.8-1.3-0.2-2
		c0.9-0.8,1.8-1.6,2.7-2.3c0.5-0.4,1.3-0.5,1.8,0c0.5,0.5-0.1,1-0.5,1.4c-0.7,0.6-1,1.4-0.9,2.4c0.2-0.1,0.3-0.1,0.4-0.1
		c0.9-0.7,1.8-1.8,3.2-0.9c0.2,0.1,0.5,0,0.7-0.2c0.6-0.9,1.5-0.7,2.4-0.6c1.6,0.2,2.2-0.1,2.4-1.2c0-0.2,0-0.5-0.1-0.6
		c-0.2-0.3-0.4,0-0.6,0.2c-1.1,0.8-2.1,0.4-2.6-1c-0.6-1.8,0.2-3.4,0.8-5c1.4,0,2.4,0.8,3.3,1.7c2.7,2.4,2.7,4.4,1.4,7.5
		C137.6,34.8,136.7,36.4,136.4,38.2z"/>
	<path class="st7" d="M55.5,271.8c1.3-0.8,2.9-0.7,4.3-1.1c4.1-0.9,8.1-2.2,11.9-3.8c1.9-0.8,3.7-1.8,5.3-3.1
		c2.7-2.3,4.6-5.1,5.4-8.6c0.9-4,1.5-8.1,2.1-12.2c0.5-3.1,1.1-6.1,1.6-9.2c0.4-2.5,0.6-5.1,0.9-7.7c0.4-3.3,0.5-6.6,0.8-10
		c0.1-1.2,1-1.1,1.8-1c1.4,0.2,2.8,0.3,4.3,0.5c2.5,0.3,5.1,0.3,7.6,1c2.8,0.7,5.3,1.7,7,4.1c0.4,0.6,0.9,1.1,1.5,1.5
		c1.2,0.7,1.7,1.7,1.9,3.1c0.3,2.1,0.7,4.1-0.4,6c-0.1,0.2-0.2,0.4-0.4,0.4c0.1-0.5,0.2-1.1,0.4-1.6c0.8-2.9-0.2-5.3-1.9-7.6
		c-0.6-0.8-1.5-1.1-2.3-1.5c-5-2.6-10.5-3.9-16-4.8c-3-0.5-2.9-0.5-3.2,2.5c-0.8,10.9-1.1,21.9-3.1,32.7c-0.2,1.1-0.5,2.2-0.7,3.4
		c-0.2,0.9-0.4,1.8-1,2.4c-2,2-3.2,4.7-5.2,6.7c-1.8,1.8-3.9,3-6.2,3.9C66.6,269.8,61.1,271.1,55.5,271.8z"/>
	<path class="st8" d="M63.4,28.9c-0.2,0.9-1,1.4-1.6,1.9c-2.9,2.5-5.8,5-8.7,7.5c-1.7,1.4-3.2,3-4.9,4.4c-1.9,1.7-2.5,3.9-2.6,6.2
		c-0.1,1.9,0,3.8,0,5.7c0,0.4,0.1,0.9-0.2,1.2c-1.3-3.5-1.8-7.2-2.3-10.9c-0.5-3.4,1.5-5.7,4-7.7C51.9,33.3,57.4,30.7,63.4,28.9z"/>
	<path class="st7" d="M87.7,283.9c2.9,2.9,5.7,5.8,8.6,8.7c-0.3,0.4-0.8,0.5-1.3,0.5c-0.3-0.1-0.5-0.2-0.8-0.2
		c-0.8-0.6-1.6-1.3-2.2-2.1c-0.3-0.8-0.9-1.4-1.8-1.8c-1.2-1.1-2.3-2.3-3.3-3.6c0-0.3-0.1-0.5-0.5-0.5c-0.3-0.3-0.5-0.6-0.8-1
		c0-0.5-0.2-0.7-0.7-0.8c-0.1-0.1-0.2-0.2-0.3-0.3c-0.1-0.4-0.3-0.6-0.7-0.7c-0.4-1-1.3-1.8-1.4-2.9c-0.5-1.8-0.6-3.5-0.2-5.3
		c0.2-0.8,0.6-1.5,1.1-2.2c0.4,0,0.5-0.2,0.4-0.6c0.1-0.1,0.2-0.3,0.3-0.4c0.6-0.1,0.9-0.5,0.9-1.1c1.2-1.3,2.4-2.7,3.7-4
		c0.3,0,0.5-0.2,0.4-0.5c0.2-0.2,0.4-0.5,0.6-0.7c0.3,0,0.5-0.2,0.4-0.5c0.1-0.2,0.2-0.4,0.5-0.5c0.3,0.5,0.7,0.9,0.8,1.5
		c-1.1,0.4-1.7,1.1-1.8,2.3c-0.6,1-1.4,1.8-2.3,2.6c-2.5,1-3.3,3.8-1.6,5.9c0.3,2.1-0.1,4.2,0.1,6.2c-0.1,0.4,0.1,0.6,0.5,0.6
		c0.4,0.2,0.6,0.5,0.8,0.9C87.1,283.7,87.3,283.9,87.7,283.9z"/>
	<path class="st9" d="M31.6,3.9c0.1,0.6-0.1,0.9-0.7,1c-0.7,0.1-1.4,0.5-2,0.8c-0.5,0.3-1,0.8-0.7,1.5c0.2,0.6,0.7,1,1.4,0.9
		c1.1-0.1,2.1,0.4,3.2,0.3c0.6-0.1,0.9,0.3,1,0.9c0.1,0.3,0.2,0.6-0.2,0.8c-0.3,0.2-0.5,0-0.8-0.1C31,8.8,31,8.8,29.8,10.5
		c0,0.1-0.1,0.2-0.1,0.2c-1.8,0.7-3.1,2.4-5,2.9c-0.7,0.2-1.2,0.4-1.7,1c-0.8,1.1-1.5,0.9-2.3-0.2c-0.8-1.2-1.7-2.2-2.5-3.3
		c-0.2-0.3-0.5-0.6-0.2-1c0.4-0.5,0.8-0.1,1.1,0.1c0.7,0.5,0.9,1.4,1.3,2.2c0.2,0.4,0.4,0.8,0.6,1.1c0.2,0.4,0.5,0.7,1,0.5
		c0.4-0.2,0.5-0.6,0.4-1c-0.3-1.7-0.8-3.3-1.8-4.7c-0.3-0.4-0.8-0.8-0.3-1.2c0.5-0.5,0.8,0.1,1.1,0.5c1,1.1,1.5,2.5,2,3.8
		c0.3,0.7,0.6,1.7,1.4,1.6c0.9-0.1,0.9-1.2,0.9-2c0-2-1-3.5-2.2-5c-0.2-0.2-0.4-0.4-0.6-0.7c-0.1-0.2-0.4-0.5-0.1-0.7
		c0.3-0.3,0.5,0,0.8,0.2c1.5,1.2,2.2,2.9,2.9,4.5c0.4,1,1.4,1.4,2.1,0.8c0.5-0.4,0.6-0.8-0.1-1c-1-0.2-1.7-0.7-1.7-1.8
		c0-1.1,0.8-1.7,1.7-2.1c0.9-0.4,1.8-0.9,2.6-1.3C31.3,3.9,31.4,3.9,31.6,3.9z"/>
	<path class="st7" d="M102.2,294.9c1.3-1.5,2.3-3.3,4-4.4c0.8,0,1.6,0,2.3,0.1c0.1,0,0.3,0.1,0.4,0.1c0.5,0.5,1.1,1,1.1,1.8
		c0.2,1.4-0.5,2.5-1.4,3.4c-0.2,0.2-0.4,0.4-0.4,0.7c-0.2,0.1-0.4,0.3-0.6,0.4c-0.9,0-1.8,0.1-2.5,0.8c-0.1,0-0.2,0-0.3,0
		c-0.4-0.1-0.8-0.1-1.2-0.2c-0.1-0.6-0.5-0.9-1.1-1c-0.4-0.1-0.9-0.2-1-0.8C102.1,295.7,102.2,295.3,102.2,294.9z"/>
	<path class="st9" d="M133.5,24.1c-0.6,1.6-1.4,3.2-0.8,5c0.5,1.4,1.5,1.8,2.6,1c0.2-0.1,0.4-0.4,0.6-0.2c0.1,0.1,0.1,0.4,0.1,0.6
		c-0.2,1.1-0.8,1.5-2.4,1.2c-0.9-0.1-1.7-0.3-2.4,0.6c-0.2,0.2-0.5,0.3-0.7,0.2c-1.4-0.9-2.2,0.1-3.2,0.9c-0.1,0.1-0.2,0.1-0.4,0.1
		c-0.1-1,0.2-1.7,0.9-2.4c0.4-0.3,1-0.8,0.5-1.4c-0.5-0.5-1.2-0.4-1.8,0c-0.9,0.7-1.8,1.5-2.7,2.3c0.3-1,0.4-2.1,0.4-3.1
		c0-0.9,0.2-1.7,1-2.2c0.7,0.1,0.5,0.7,0.6,1.1c0.1,0.4-0.2,1,0.3,1.1c0.4,0.1,0.9-0.3,1.1-0.7c0.7-1.3,1.4-2.7,2.2-4
		c0.3-0.2,0.6-0.4,1-0.2c0,0.3,0,0.6-0.2,0.8c-1.4,1.4-1.3,3.1-1,4.8c0.1,0.7,0.1,1.6,1.2,1.5c1-0.1,1.1-0.9,1.1-1.6
		c-0.1-1.9,0.1-3.7,1.3-5.2C133,24.1,133.3,24.1,133.5,24.1z"/>
	<path class="st7" d="M120.5,255.6c-0.4-1.3,0.7-2,1.3-2.8c4.6-6.6,8.5-13.6,11.6-21c0.4-1.1,0.6-2.4,1.6-3.2
		c-1.1,5.2-3.3,9.8-5.8,14.4c-0.3,0.6-0.7,1-0.7,1.7c0,0.1,0,0.1-0.1,0.2c-0.5,0.2-0.7,0.6-0.7,1.1c0,0.1,0,0.1-0.1,0.2
		c-0.4,0.1-0.5,0.3-0.4,0.6c0,0.1,0,0.1-0.1,0.2c-0.7,0.4-1.1,1-1.2,1.9c0,0.1,0,0.1-0.1,0.2c-0.3,0-0.5,0.3-0.4,0.6
		c0,0.1,0,0.1-0.1,0.2c-0.3,0-0.5,0.3-0.4,0.6c0,0.1,0,0.1-0.1,0.2c-0.7,0.3-1.1,0.9-1.2,1.6c0,0.1,0,0.1-0.1,0.2
		c-0.5,0.1-0.7,0.4-0.7,0.8C122.2,254,121.5,254.9,120.5,255.6z"/>
	<path class="st7" d="M106.7,239.3c0,1.1-0.7,1.8-1.2,2.6c-3,4.8-6.6,9.2-10,13.8c-1.3,1.9-2,4.1-3.3,6c-0.1,0.2-0.3,0.3-0.5,0.3
		c-0.1-1.5,0.7-2.7,1-4.1c0.1-0.2,0.3-0.5,0.4-0.7c1.1-1.2,2-2.6,2.7-4.2c0-0.1,0-0.1,0.1-0.2c0.3,0,0.5-0.2,0.4-0.6
		c0-0.1,0-0.2,0.1-0.2c1.1-0.8,1.9-1.8,2.4-3.1c0.1-0.2,0.2-0.3,0.4-0.5c0.5-0.1,0.7-0.3,0.7-0.8c0.1-0.2,0.2-0.3,0.3-0.5
		c0.5-0.1,0.7-0.3,0.7-0.8c0-0.1,0-0.1,0.1-0.2c0.5-0.1,0.7-0.4,0.6-0.8c0.1-0.2,0.2-0.3,0.3-0.5c0.3,0,0.5-0.2,0.4-0.5
		c0.1-0.2,0.2-0.3,0.3-0.5c0.5-0.1,0.7-0.4,0.7-0.9c0-0.1,0-0.1,0.1-0.2c0.5-0.1,0.7-0.4,0.7-0.8c0-0.1,0-0.1,0.1-0.2
		c0.8-0.3,1.2-1,1.4-1.8c0.1-0.2,0.2-0.3,0.3-0.5C106.3,239.5,106.5,239.4,106.7,239.3z"/>
	<path class="st10" d="M128.4,244.7c0-0.7,0.4-1.2,0.7-1.7c2.5-4.6,4.8-9.3,5.8-14.4c0.3-1.2,0.5-2.4,0.6-3.6
		c0.1-0.2,0.2-0.4,0.2-0.6c0.4-2.7,0.5-5.5,0-8.2c-0.9-4.8-3.2-8.9-6.1-12.7c-0.9-1.4-1.9-2.7-3.1-3.9c-0.5-0.4-0.9-0.8-0.9-1.5
		c1.6,1,2.9,2.4,3.9,4c2,3,4,6.1,5.4,9.5c1.9,4.5,2.1,9.1,1.2,13.8c-1.2,6.6-3.7,12.8-7.1,18.6C128.8,244.2,128.6,244.4,128.4,244.7
		z"/>
	<path class="st9" d="M77.5,96.4c-2.5,0.1-4.9,0-7.3-0.9c-0.5-0.2-1-0.5-1.4-0.8c-0.4-0.2-0.7-0.6-0.4-1.1c0.3-0.4,0.7-0.4,1-0.2
		c2.4,1.5,5,0.9,7.5,0.7C77.1,94.9,77.6,95.6,77.5,96.4z"/>
	<path class="st2" d="M132.8,24.1c-1.3,1.5-1.4,3.3-1.3,5.2c0,0.7-0.1,1.5-1.1,1.6c-1.1,0.1-1.1-0.8-1.2-1.5c-0.3-1.7-0.4-3.4,1-4.8
		c0.2-0.2,0.2-0.5,0.2-0.8C131.2,23.7,132,23.9,132.8,24.1z"/>
	<path class="st8" d="M85.3,27.6c-0.1,2.2-0.2,4.5-0.3,6.7c-0.1,0-0.2,0-0.3,0c-0.8-2.6-1.4-5.4-2.7-7.8
		C83.2,26.6,84.4,26.9,85.3,27.6z"/>
	<path class="st11" d="M101,276c-0.3,0.5-0.6,0.9-1.2,0.7c-1.1-0.3-2.2,0.1-3.2,0.5c-0.6,0.2-1.3,0.4-1.6-0.5
		c-0.2-0.7,0.3-1,0.9-1.3c1.4-0.6,2.9-1,4.4-0.4C100.5,275.4,100.8,275.7,101,276z"/>
	<path class="st11" d="M16.8,275.4c-0.5-0.1-0.8-0.5-1.1-0.9c-0.9-1.1-2.1-1.9-3.5-2c-0.6-0.1-1-0.2-1-0.9c0.1-0.6,0.6-0.7,1.1-0.7
		c1.8,0,4.3,1.9,5,3.6C17.2,274.8,17,275.1,16.8,275.4z"/>
	<path class="st11" d="M15.2,277.6c-1.3-1.2-2.6-2.5-4.5-2.9c-0.4-0.1-0.8-0.4-0.7-0.9c0.1-0.6,0.5-0.7,1-0.7c0.6,0,1.1,0.3,1.5,0.6
		c1.4,0.8,2.5,1.8,3.6,2.9c0.1,0.4,0,0.7-0.2,1C15.7,277.5,15.4,277.6,15.2,277.6z"/>
	<path class="st12" d="M101.7,295.9c0.1,0.6,0.5,0.7,1,0.8c0.6,0.1,1,0.4,1.1,1c-0.1,0.1-0.2,0.2-0.2,0.2c-0.2,0-0.3,0-0.5-0.1
		c-0.6-0.7-1.5-0.8-2.4-1.1c-2.1-0.8-3.9-2.1-5.6-3.6c0.5,0,0.9-0.1,1.3-0.5c0.7,0.5,1.4,1,2.1,1.5
		C99.2,295.1,100.4,295.6,101.7,295.9z"/>
	<path class="st11" d="M13.2,284c-1.4-0.8-2.6-1.9-4.2-2.2c-0.5-0.1-0.7-0.5-0.6-0.9c0.1-0.6,0.6-0.7,1.1-0.6
		c0.9,0.1,1.6,0.7,2.4,1.1c0.6,0.4,1.2,0.7,1.8,1.1C13.7,283,13.5,283.5,13.2,284z"/>
	<path class="st11" d="M105,283.9c-0.1,0.7-0.5,1.1-1.2,1.3c-0.8,0.1-1.6,0.6-2.3,1c-0.6,0.3-1.1,0.2-1.4-0.4
		c-0.3-0.6,0.1-1,0.6-1.2c1.2-0.7,2.4-1.2,3.8-1.1C104.6,283.5,104.8,283.7,105,283.9z"/>
	<path class="st11" d="M14.5,280.7c-1.1-0.9-2.3-1.8-3.6-2.3c-0.5-0.2-1-0.5-0.7-1.1c0.3-0.6,0.9-0.6,1.4-0.4
		c1.3,0.5,2.3,1.4,3.5,2.1C15.1,279.7,14.8,280.2,14.5,280.7z"/>
	<path class="st7" d="M115.2,189c-1.4-0.1-2.4-1.1-3.5-1.7c-1.3-0.7-2.4-1.6-3.6-2.5c-0.6-0.5-0.9-1-0.2-1.7
		c0.1,0.1,0.3,0.2,0.4,0.4c0,0.3,0.2,0.4,0.5,0.4c0.2,0.1,0.3,0.2,0.5,0.3c0,0.3,0.2,0.5,0.6,0.4c0.1,0,0.1,0,0.2,0.1
		c0.1,0.5,0.4,0.7,0.8,0.6c0.1,0,0.1,0,0.2,0.1c0,0.3,0.2,0.5,0.6,0.4c0.2,0.1,0.3,0.2,0.5,0.3c0.3,0.7,0.9,1,1.6,1.2
		c0.2,0.1,0.3,0.2,0.5,0.3c0.1,0.5,0.3,0.7,0.8,0.7c0,0,0,0,0,0C115,188.7,115.1,188.8,115.2,189z"/>
	<path class="st2" d="M129.4,24c-0.7,1.3-1.4,2.7-2.2,4c-0.2,0.4-0.7,0.8-1.1,0.7c-0.5-0.1-0.2-0.7-0.3-1.1c-0.1-0.4,0.1-1-0.6-1.1
		C126.4,25.3,127.8,24.4,129.4,24z"/>
	<path class="st10" d="M95,293.1c1.7,1.5,3.4,2.8,5.6,3.6c0.8,0.3,1.7,0.4,2.4,1.1c-3.6-0.5-6.3-2.4-8.7-4.9
		C94.5,292.9,94.8,293,95,293.1z"/>
	<path class="st7" d="M34.9,273.6c0.1-0.1,0.2-0.3,0.3-0.4c2.6-0.2,5.3-0.4,7.9-0.6c0.1,0,0.3,0.1,0.4,0.2
		C40.7,273.3,37.8,273.8,34.9,273.6z"/>
	<path class="st3" d="M99,133.2c-0.6-0.1-0.4-0.7-0.5-1c-0.2-1.2-0.3-2.4-0.5-3.6c0-0.4-0.2-1,0.6-1C98.8,129.4,98.9,131.3,99,133.2
		z"/>
	<path class="st10" d="M92.7,257.8c-0.3,1.4-1.1,2.6-1,4.1c-0.1,0.3-0.3,0.5-0.6,0.5C91,260.7,91.6,259.2,92.7,257.8z"/>
	<path class="st10" d="M108.3,296.6c0-0.3,0.2-0.5,0.4-0.7c1-0.9,1.6-2,1.4-3.4c0.8,0.9,0.5,1.8-0.1,2.6
		C109.5,295.6,109,296.3,108.3,296.6z"/>
	<path class="st10" d="M82.2,273.8c-0.3,1.8-0.3,3.6,0.2,5.3C81.3,277.5,81.2,275.7,82.2,273.8z"/>
	<path class="st10" d="M95.8,253c-0.7,1.5-1.5,2.9-2.7,4.2C93.8,255.6,94.6,254.2,95.8,253z"/>
	<path class="st10" d="M117.2,258.8c0.8-1.2,1.7-2.3,3.1-3C119.4,257,118.4,258,117.2,258.8z"/>
	<path class="st10" d="M98.8,248.9c-0.5,1.3-1.3,2.3-2.4,3.1C97,250.9,97.9,249.8,98.8,248.9z"/>
	<path class="st10" d="M106.7,268c0.7-1.2,1.7-1.9,2.9-2.4C108.7,266.5,107.8,267.3,106.7,268z"/>
	<path class="st7" d="M45.1,272.8c1.1-0.8,2.2-0.4,3.3-0.2C47.3,272.8,46.2,272.9,45.1,272.8z"/>
	<path class="st10" d="M123.3,195.9c-1-0.3-1.6-1.1-2.1-2C122.1,194.4,122.8,195.1,123.3,195.9z"/>
	<path class="st10" d="M90.2,289c0.8,0.3,1.4,0.9,1.8,1.8C91.3,290.3,90.7,289.7,90.2,289z"/>
	<path class="st10" d="M105.7,240c-0.2,0.8-0.6,1.5-1.4,1.8C104.6,241.1,105.1,240.5,105.7,240z"/>
	<path class="st10" d="M105.2,297.8c0.7-0.6,1.6-0.7,2.5-0.8C106.9,297.5,106.1,297.7,105.2,297.8z"/>
	<path class="st7" d="M48.9,272.6c0.6-0.8,1.3-0.4,2-0.2C50.3,272.6,49.6,272.7,48.9,272.6z"/>
	<path class="st10" d="M100.9,271.4c0.5-0.1,1-0.2,1.5-0.3c0.1,0.1,0.3,0.1,0.4,0.2c-0.6,0.4-1.2,0.6-1.9,0.5
		C100.9,271.7,100.9,271.5,100.9,271.4z"/>
	<path class="st10" d="M125.9,248.8c0.1-0.8,0.5-1.4,1.2-1.9C126.8,247.6,126.5,248.3,125.9,248.8z"/>
	<path class="st10" d="M113.7,187.5c-0.7-0.2-1.3-0.4-1.6-1.2C112.7,186.5,113.3,186.9,113.7,187.5z"/>
	<path class="st10" d="M123.6,252.1c0.1-0.7,0.4-1.3,1.2-1.6C124.5,251.1,124.2,251.7,123.6,252.1z"/>
	<path class="st10" d="M99.1,272.1c-0.2-0.1-0.6,0-0.7-0.2c0.5-0.5,1.2-0.1,1.8-0.3c0,0.1,0,0.2,0,0.3C99.8,272,99.4,272,99.1,272.1
		z"/>
	<path class="st7" d="M51.4,272.3c0.4-0.7,1-0.4,1.5-0.2C52.5,272.3,52,272.4,51.4,272.3z"/>
	<path class="st10" d="M115.2,189c-0.1-0.2-0.1-0.4-0.2-0.6c0.6,0.2,1,0.5,1.3,1C115.8,189.6,115.5,189.2,115.2,189z"/>
	<path class="st10" d="M103.5,297.9c0.1-0.1,0.2-0.2,0.2-0.2c0.4,0.1,0.8,0.1,1.2,0.2C104.4,298,103.9,298,103.5,297.9z"/>
	<path class="st7" d="M53.5,272.1c0.3-0.7,0.8-0.5,1.3-0.2C54.3,272.1,53.9,272.1,53.5,272.1z"/>
	<path class="st10" d="M117.5,190.5c-0.6,0-0.9-0.4-1.1-0.9C116.9,189.8,117.3,190.1,117.5,190.5z"/>
	<path class="st10" d="M85.1,269.6c0,0.6-0.4,0.9-0.9,1.1C84.3,270.2,84.6,269.8,85.1,269.6z"/>
	<path class="st12" d="M100.1,271.9c0-0.1,0-0.2,0-0.3c0.1-0.5,0.4-0.6,0.8-0.2c0,0.1,0,0.3,0,0.4
		C100.6,271.8,100.4,271.9,100.1,271.9z"/>
	<path class="st7" d="M102.8,271.3c-0.1-0.1-0.3-0.1-0.4-0.2c0-0.6,0.2-0.8,0.8-0.5c0,0.1,0,0.3,0,0.4
		C103.1,271.1,102.9,271.2,102.8,271.3z"/>
	<path class="st10" d="M127.7,246c0-0.5,0.1-0.9,0.7-1.1C128.3,245.3,128.1,245.7,127.7,246z"/>
	<path class="st10" d="M107.5,237.7c0.1,0.3-0.1,0.6-0.2,0.8c-0.2,0.1-0.3,0.2-0.4,0.3c0,0-0.1-0.1-0.1-0.1
		C106.9,238.3,107.1,237.9,107.5,237.7z"/>
	<path class="st10" d="M15.2,277.6c0.3,0,0.5,0,0.8-0.1c0,0.3-0.2,0.5-0.4,0.7C15.4,278,15.3,277.8,15.2,277.6z"/>
	<path class="st10" d="M108.8,235.9c0.1,0.5-0.2,0.7-0.6,0.9C108.2,236.4,108.4,236.1,108.8,235.9z"/>
	<path class="st10" d="M99.9,247.7c0,0.5-0.2,0.7-0.7,0.8C99.3,248.1,99.5,247.8,99.9,247.7z"/>
	<path class="st10" d="M103.4,243c0.1,0.5-0.2,0.8-0.7,0.9C102.8,243.5,103,243.2,103.4,243z"/>
	<path class="st10" d="M100.9,246.4c0,0.5-0.2,0.8-0.7,0.8C100.3,246.8,100.5,246.5,100.9,246.4z"/>
	<path class="st10" d="M101.6,245.4c0,0.5-0.2,0.7-0.6,0.8C101.1,245.8,101.3,245.5,101.6,245.4z"/>
	<path class="st10" d="M83.9,282.1c0.4,0.1,0.6,0.3,0.7,0.7C84.2,282.7,84,282.5,83.9,282.1z"/>
	<path class="st10" d="M84.9,283.1c0.5,0.1,0.7,0.3,0.7,0.8C85.2,283.8,85,283.5,84.9,283.1z"/>
	<path class="st10" d="M104.2,242c0,0.5-0.2,0.8-0.7,0.8C103.6,242.5,103.8,242.2,104.2,242z"/>
	<path class="st10" d="M115,188.5c-0.5,0-0.8-0.2-0.8-0.7C114.5,187.9,114.8,188.1,115,188.5z"/>
	<path class="st10" d="M110.9,185.4c-0.5,0.1-0.8-0.2-0.8-0.6C110.4,184.8,110.7,185.1,110.9,185.4z"/>
	<path class="st10" d="M106.7,239.3c-0.2,0.1-0.5,0.2-0.7,0.3c0.1-0.4,0.3-0.6,0.6-0.9c0,0,0.1,0.1,0.1,0.1
		C106.8,239,106.8,239.1,106.7,239.3L106.7,239.3z"/>
	<path class="st10" d="M122.8,253.1c0-0.5,0.2-0.8,0.7-0.8C123.4,252.7,123.2,252.9,122.8,253.1z"/>
	<path class="st10" d="M108,237c0,0.3-0.1,0.5-0.4,0.5C107.6,237.2,107.7,237,108,237z"/>
	<path class="st10" d="M109.3,235.1c0.1,0.3-0.1,0.5-0.4,0.6C108.9,235.4,109,235.2,109.3,235.1z"/>
	<path class="st10" d="M89.2,265c0,0.3-0.1,0.5-0.4,0.5C88.8,265.3,88.9,265.1,89.2,265z"/>
	<path class="st10" d="M96.3,252.3c0,0.3-0.1,0.5-0.4,0.6C95.9,252.5,96,252.3,96.3,252.3z"/>
	<path class="st10" d="M110.5,233.1c0.1,0.3,0,0.5-0.4,0.6C110.2,233.4,110.3,233.2,110.5,233.1z"/>
	<path class="st10" d="M119,191.8c-0.3,0-0.5-0.1-0.5-0.5C118.7,191.4,118.9,191.6,119,191.8z"/>
	<path class="st10" d="M109.8,234.4c0.1,0.3,0,0.5-0.4,0.6C109.4,234.7,109.5,234.5,109.8,234.4z"/>
	<path class="st10" d="M102.4,244.4c0,0.3-0.1,0.5-0.4,0.5C102,244.6,102.1,244.4,102.4,244.4z"/>
	<path class="st10" d="M127.2,246.7c-0.1-0.3,0-0.5,0.4-0.6C127.6,246.4,127.4,246.6,127.2,246.7z"/>
	<path class="st10" d="M124.9,250.3c-0.1-0.3,0.1-0.5,0.4-0.6C125.3,250,125.1,250.2,124.9,250.3z"/>
	<path class="st10" d="M86.4,284.9c0.3,0,0.5,0.2,0.5,0.5C86.6,285.4,86.5,285.2,86.4,284.9z"/>
	<path class="st10" d="M103.2,271.1c0-0.1,0-0.3,0-0.4c0.2,0,0.3,0,0.5,0C103.6,270.9,103.4,271,103.2,271.1z"/>
	<path class="st10" d="M111.6,186c-0.3,0-0.5-0.1-0.6-0.4C111.3,185.6,111.5,185.7,111.6,186z"/>
	<path class="st10" d="M125.4,249.5c-0.1-0.3,0.1-0.5,0.4-0.6C125.8,249.2,125.7,249.4,125.4,249.5z"/>
	<path class="st10" d="M83.8,271.1c0,0.3-0.1,0.5-0.4,0.6C83.4,271.4,83.5,271.2,83.8,271.1z"/>
	<path class="st10" d="M109.9,184.7c-0.3,0-0.5-0.1-0.6-0.4C109.6,184.3,109.8,184.4,109.9,184.7z"/>
	<path class="st10" d="M108.8,183.9c-0.3,0-0.5-0.1-0.5-0.4C108.5,183.5,108.7,183.7,108.8,183.9z"/>
	<path class="st10" d="M90.2,263.8c0,0.3-0.1,0.5-0.4,0.5C89.8,264,89.9,263.8,90.2,263.8z"/>
	<path class="st10" d="M113.9,261.9c0-0.3,0.2-0.5,0.5-0.5C114.3,261.7,114.1,261.9,113.9,261.9z"/>
	<path class="st3" d="M91.3,131.2c-1.4-0.1-2.6-0.5-3.7-1.1c-1.2-0.7-1.5-1.8-1.7-3.1c-0.5-2.9-0.9-5.7-1.4-8.6
		c0-0.3-0.3-0.6,0.2-0.7c0.4-0.1,0.5,0.3,0.5,0.6c0.6,2.8,1.9,5.4,2,8.4c0,1.6,1.3,2.6,3.1,2.7c1.7,0.1,3.4-0.3,5-0.6
		c0.4-0.1,0.8-0.3,1,0.2c0.2,0.5-0.1,0.8-0.5,1C94.4,130.8,92.8,131,91.3,131.2z"/>
	<path class="st3" d="M64.9,110.8c0.5-2.6,1.5-4.6,2.5-6.7c0.3-0.6,0.9-0.7,1.4-0.5c1.3,0.6,2.4,1.4,3.1,2.7c0.5,1-0.2,2.1-1.2,1.8
		c-2-0.6-3.3,0.3-4.6,1.6C65.8,110,65.5,110.3,64.9,110.8z"/>
	<path class="st3" d="M80.9,110.2c-0.8,0.1-1.4-0.2-2-0.6c-1.3-0.8-2.7-1.3-4.2-0.6c-0.4,0.2-0.7,0.1-0.8-0.5
		c-0.1-1.1,0.7-3.1,1.7-3.7c0.5-0.3,1.2-0.6,1.6,0.1c1.2,1.7,2.6,3.1,4.2,4.4c0.3,0.2,0.6,0.5,0.4,0.9
		C81.5,110.6,81.1,110.2,80.9,110.2z"/>
	<path class="st7" d="M129.7,203.6c2.9,3.8,5.2,7.9,6.1,12.7c0.5,2.7,0.4,5.5,0,8.2c0,0.2-0.2,0.4-0.2,0.6c-0.6-1.3-0.4-2.8-0.4-4.1
		c-0.1-4.1-0.9-8-2.7-11.7c-0.8-1.6-1.5-3.1-2.5-4.6C129.8,204.3,129.7,204,129.7,203.6z"/>
	<path class="st12" d="M89.7,267c0.1-1.1,0.7-1.9,1.8-2.3c0.2,1.1,0.7,2.1,1.3,3.1c-0.4,0.4-0.1,0.5,0.3,0.5c0.3,0.6,0.8,1,0.8,1.7
		c-1.3-0.8-1.9-2.1-2.3-3.4c-0.1-0.3,0-0.9-0.5-0.9c-0.4,0-0.5,0.4-0.7,0.7C90,266.6,89.9,266.8,89.7,267z"/>
	<path class="st7" d="M106.7,239.3c0-0.2,0-0.3,0.1-0.5c0.2-0.1,0.3-0.2,0.5-0.3C107.3,238.9,107.3,239.3,106.7,239.3z"/>
	<path class="st7" d="M93,268.3c-0.3-0.1-0.6-0.1-0.3-0.5C92.9,267.9,93,268.1,93,268.3z"/>
	<path class="st10" d="M96.3,271.5c-0.3,0.1-0.5,0-0.7-0.2C96,271.1,96.2,271.2,96.3,271.5z"/>
	<path class="st13" d="M83.8,78.4c0.5-0.4,0.9-0.8,1.4-1.2c1-0.2,2.1-0.4,3.1,0.1c0.1,0.1,0.1,0.2,0.2,0.3c-0.2,0.6-0.5,1.2-0.6,1.8
		c-0.4,2.8-2.4,4.5-4.5,6c-0.6,0.4-1.4,1.1-2.3,0.2c0.5-0.4,0.5-0.9,0.3-1.4c-0.6-1.5-3.2-2.8-4.9-2.4c-0.8,0.2-1.6,0.5-2.4,0.9
		c-0.4,0.1-0.7,0.2-1.1,0.3c-0.5-0.5-0.8-1.1-0.9-1.9c0.3-0.8,0.3-1.5,0-2.3c0.2-1,0.7-1.7,1.8-1.7c0.3,0.3,0.7,0.3,1,0
		c0.2,0,0.3,0.1,0.5,0.1c1.7,0.8,3.4,1.6,5.3,1.8C81.7,79.2,83,79.5,83.8,78.4z"/>
	<path class="st9" d="M84.1,65.5c0,0.3,0,0.6,0,0.9c0,0.7-0.3,1.6,0,2.1c0.2,0.4,1.2,0.3,1.9,0.5c1.3,0.4,1.9,1.7,1.2,2.8
		c-1.4,1.9-3.2,3.3-5.7,3.3c-0.5,0-1.1,0-1.1-0.7c0-0.8,0.5-0.8,1.1-0.8c1.7,0,3-0.8,4.1-2c0.5-0.6,0.5-1-0.3-1.3
		c-0.2-0.1-0.5-0.2-0.7-0.2c-0.7,0-0.9-0.3-1.3-1.1c-0.9-1.8-0.3-3.6-0.5-5.3c-0.1-0.5-0.1-1.2,0.7-1.2c0.9,0,0.8,0.7,0.8,1.3
		C84.1,64.2,84.1,64.8,84.1,65.5z"/>
	<path class="st7" d="M66.6,59.6c1.5-2.3,3.7-3.3,5.7-2.8c0.7,0.2,1.1,0.5,1.3,1.2c0.2,0.9,0.1,1.3-1,1.1c-1-0.2-2-0.2-3-0.2
		C68.6,58.8,67.7,59.4,66.6,59.6z"/>
	<path class="st5" d="M68.7,64.7c0-0.3,0.1-0.8,0.1-1.2c0.1-0.5,0.2-1.1,0.9-1.2c0.7-0.1,1,0.4,1.3,1c0.3,0.8,0.4,1.7,0.3,2.5
		c-0.1,0.8-0.6,1.4-1.4,1.4c-0.8,0-1-0.6-1.1-1.3C68.8,65.6,68.8,65.2,68.7,64.7z"/>
	<path class="st7" d="M92.4,57.9c-1.5-0.3-3-0.4-4.5,0c-0.2,0.1-0.5,0.2-0.7-0.1c-0.2-0.4-0.1-0.8,0.2-1.2c0.6-0.8,2.5-1.4,3.5-0.9
		c0.6,0.3,1.2,0.8,1.8,1.2c0.2,0.2,0.5,0.4,0.4,0.7C92.9,58,92.6,57.9,92.4,57.9z"/>
	<path class="st11" d="M81.1,85.6c0.8,0.9,1.7,0.2,2.3-0.2c2.1-1.5,4.1-3.2,4.5-6c0.1-0.6,0.4-1.2,0.6-1.8c0.6,0.7,0.5,1.6,0.2,2.3
		c-1.4,4.1-5.5,7.1-9.5,6.5c0-0.2,0-0.3,0-0.5c0.2,0,0.3,0,0.5,0c0.3,0.4,0.4,0.1,0.5-0.2C80.5,85.7,80.8,85.7,81.1,85.6z"/>
	<path class="st5" d="M91,64.3c0,0.3,0,0.7,0,1c-0.1,0.5-0.3,0.8-0.8,0.9c-0.5,0.1-0.8-0.1-1.1-0.5c-0.4-0.8-0.6-1.7-0.4-2.6
		c0.1-0.6,0.4-1.1,1.1-1.1c0.7,0,1,0.5,1.1,1.2C91,63.5,91,63.9,91,64.3C91,64.3,91,64.3,91,64.3z"/>
	<path class="st10" d="M79.2,86c0,0.2,0,0.3,0,0.5c-2.7,0-4.8-1.2-6.2-3.5c0.4-0.1,0.7-0.2,1.1-0.3c-0.1,0.6,0.3,1,0.7,1.4
		C76.1,85.1,77.6,85.6,79.2,86z"/>
	<path class="st11" d="M83.8,78.4c-0.9,1.1-2.1,0.8-3.2,0.6c-1.9-0.2-3.6-1-5.3-1.8c1-0.1,1.8,0.4,2.6,0.7
		C79.9,78.7,81.8,79,83.8,78.4z"/>
	<path class="st11" d="M88.4,77.3c-1-0.4-2.1-0.3-3.1-0.1C86.5,76.1,87.4,76.1,88.4,77.3z"/>
	<path class="st10" d="M72.1,78.9c0.3,0.8,0.3,1.5,0,2.3C71.8,80.4,71.8,79.6,72.1,78.9z"/>
	<path class="st11" d="M74.9,77.1c-0.3,0.3-0.7,0.3-1,0C74.2,76.9,74.6,76.9,74.9,77.1z"/>
	<path class="st11" d="M103,281.8c-0.1,0.5-0.4,0.8-0.9,0.8c-1.2,0-2.1,0.5-3.1,1.1c-0.5,0.3-1.1,0.6-1.6-0.1
		c-0.4-0.7,0-1.1,0.5-1.5c1.1-0.8,2.3-1.4,3.8-1.3C102.4,280.9,102.9,281.2,103,281.8z"/>
	<path class="st11" d="M100.3,277.7c0.5,0.1,1.3,0,1.4,0.8c0.1,0.8-0.7,0.9-1.3,1c-0.9,0.1-1.6,0.5-2.4,0.9
		c-0.5,0.3-1.1,0.4-1.4-0.2c-0.4-0.6,0.1-1,0.6-1.4C97.8,278.3,99.4,277.7,100.3,277.7z"/>
	<path class="st12" d="M85.8,275.5c-1.6-2-0.8-4.9,1.6-5.9C85.4,271.2,85.2,273.2,85.8,275.5z"/>
	<path class="st10" d="M101.7,295.9c-1.3-0.2-2.4-0.8-3.3-1.8c0.8-0.1,1.4,0.5,2,0.9c0.7,0.4,1.2,0.4,1.8-0.1
		C102.2,295.3,102.1,295.7,101.7,295.9z"/>
	<path class="st10" d="M108.5,290.6c-0.8,0-1.6,0-2.3-0.1C107,289.8,107.8,289.9,108.5,290.6z"/>
	<path class="st12" d="M87.7,283.9c-0.4,0-0.5-0.2-0.5-0.6C87.4,283.4,87.6,283.6,87.7,283.9z"/>
	<path class="st12" d="M86.4,282.4c-0.4,0-0.5-0.3-0.5-0.6C86.1,281.9,86.3,282.1,86.4,282.4z"/>
	<path class="st14" d="M79.2,86c-1.6-0.4-3.1-0.9-4.4-2c-0.4-0.4-0.8-0.7-0.7-1.4c0.7-0.4,1.5-0.7,2.4-0.9c1.7-0.4,4.3,0.9,4.9,2.4
		c0.2,0.5,0.2,1-0.3,1.4c-0.3,0.1-0.6,0.1-0.9,0.2c-0.2-0.1-0.4,0-0.5,0.2C79.6,86,79.4,86,79.2,86z"/>
	<path class="st10" d="M79.7,86c0.1-0.2,0.3-0.3,0.5-0.2C80.2,86.1,80.1,86.4,79.7,86z"/>
</g>
</svg>
