<?xml version="1.0" encoding="utf-8"?>
<!-- Generator: Adobe Illustrator 22.0.0, SVG Export Plug-In . SVG Version: 6.00 Build 0)  -->
<svg version="1.1" id="Layer_1" xmlns="http://www.w3.org/2000/svg" xmlns:xlink="http://www.w3.org/1999/xlink" x="0px" y="0px"
	 viewBox="0 0 1440 663" style="enable-background:new 0 0 1440 663;" xml:space="preserve">
<style type="text/css">
	.st0{fill:#171C37;}
	.st1{opacity:0.75;fill:none;stroke:#515983;enable-background:new    ;}
</style>
<path class="st0" d="M1440,663V0H0l0,179.1c126.4-150.6,329.6,4.6,412.3,82c98.6,92.5,215.7,16.2,312.8,25.3
	c97.1,9.1,200.5,86.5,194.1,241.6c-6.3,155,213.9,111.3,297.7,108.4c68.1-2.3,120,6.2,153.5,26.5L1440,663z"/>
<path class="st1" d="M0,128.8c145.5-83,348.1,75.3,413.1,151.9c87.1,102.8,292-8.9,389.1,0.2c97.1,9.1,73.6,128.5,98.9,283.6
	c26.2,160.8,244.8,44.1,327.4,30.7c85.9-13.9,151.5,31.6,168.7,67.7"/>
</svg>
