<?xml version="1.0" encoding="utf-8"?>
<!-- Generator: Adobe Illustrator 22.0.0, SVG Export Plug-In . SVG Version: 6.00 Build 0)  -->
<svg version="1.1" id="Layer_1" xmlns="http://www.w3.org/2000/svg" xmlns:xlink="http://www.w3.org/1999/xlink" x="0px" y="0px"
	 viewBox="0 0 1366 768" style="enable-background:new 0 0 1366 768;" xml:space="preserve">
<style type="text/css">
	.st0{fill:#ECEDF2;}
	.st1{opacity:0.75;fill:none;stroke:#B9BDCD;enable-background:new    ;}
</style>
<path class="st0" d="M0,0v225.1c16.7-4.6,33.4-15.7,44.1-40.6c69.2-160.8,238.6-53.1,305.5,0c74.1,58.8,149.4-2.8,216.8-2.8
	S710,229.6,716.2,339.6c6.2,110,154.6,64.5,212,56.9c57.4-7.6,99.1-1.9,122.4,18.5c16.4,14.4,1.1,49.6,0,63.6
	c24.2-91.1,106.2-179.8,232.4-139c23.9,7.7,54.7-2.2,83-20.9V0H0"/>
<path class="st1" d="M0,182c7.3-7.3,15.1-16.7,23.2-28.8c87.3-130.9,271.8-12.3,328.2,44.1c66.9,66.9,200.2-25.6,267.5-25.6
	s59.4,85.9,87.3,194c28.9,111.9,171.2,15,227.2,0c67.4-18,121.4,22.3,124.7,47.9c2.8,21.7-6.5,50.1-7.6,64
	c24.2-91.1,108.1-165.5,234.3-124.7c23.6,7.6,53.5,0.8,81.1-14.2"/>
</svg>
