<svg width="25" height="24" viewBox="0 0 25 24" fill="none" xmlns="http://www.w3.org/2000/svg">
<path d="M23.7998 22.5448H22.6273V8.76801C22.6273 8.40643 22.3344 8.1126 21.9728 8.1126H17.8964V0.802892C17.8964 0.441314 17.6036 0.148438 17.242 0.148438H7.40233C7.04075 0.148438 6.74787 0.441314 6.74787 0.802892V2.4123H2.67417C2.31259 2.4123 2.01972 2.70613 2.01972 3.06771V22.5448H0.842469C0.662162 22.5334 0.485678 22.5973 0.354016 22.7213C0.222363 22.8444 0.147949 23.017 0.147949 23.1973C0.147949 23.3786 0.222363 23.5503 0.354016 23.6743C0.485669 23.7984 0.662157 23.8623 0.842469 23.8508H23.7998C24.1452 23.8298 24.4142 23.5436 24.4142 23.1973C24.4142 22.852 24.1451 22.5658 23.7998 22.5448L23.7998 22.5448ZM16.1753 10.1943C16.1762 10.0293 16.3088 9.89568 16.4729 9.89377H17.591C17.7589 9.89377 17.8944 10.0292 17.8944 10.1962V11.3152C17.8944 11.4822 17.7589 11.6177 17.591 11.6177H16.4729C16.306 11.6177 16.1705 11.4822 16.1705 11.3152L16.1753 10.1943ZM17.8992 13.0449V14.163C17.8992 14.33 17.7637 14.4654 17.5967 14.4654H16.4729C16.3059 14.4654 16.1705 14.33 16.1705 14.163V13.044C16.1676 12.9629 16.1991 12.8837 16.2563 12.8255C16.3136 12.7663 16.3908 12.7339 16.4729 12.7339H17.591C17.673 12.733 17.7522 12.7654 17.8095 12.8245C17.8676 12.8827 17.8991 12.9619 17.8963 13.044L17.8992 13.0449ZM16.1753 15.8916C16.1762 15.7275 16.3088 15.594 16.4729 15.5911H17.591C17.7589 15.5911 17.8944 15.7266 17.8944 15.8945V17.0126C17.8944 17.1795 17.7589 17.316 17.591 17.316H16.4729C16.306 17.316 16.1705 17.1795 16.1705 17.0126L16.1753 15.8916ZM13.2025 13.0439C13.2006 12.9628 13.2321 12.8837 13.2884 12.8255C13.3456 12.7663 13.4239 12.7339 13.5059 12.7339H14.624C14.7909 12.7339 14.9274 12.8694 14.9274 13.0363V14.1554C14.9274 14.3223 14.7909 14.4578 14.624 14.4578H13.5059C13.338 14.4578 13.2025 14.3223 13.2025 14.1554L13.2025 13.0439ZM6.74956 4.49599H6.75051C6.74861 4.4149 6.77913 4.33572 6.83637 4.27752C6.89362 4.21838 6.97184 4.18594 7.05294 4.18594H8.16913C8.33608 4.18594 8.47155 4.32141 8.47155 4.48837V5.60741C8.47441 5.6885 8.44293 5.76769 8.38569 5.82588C8.32845 5.88503 8.25118 5.91747 8.16913 5.91747H7.05294C6.88599 5.91747 6.75051 5.782 6.75051 5.61504L6.74956 4.49599ZM6.74956 7.34661H6.75051C6.75051 7.1787 6.88598 7.04323 7.05294 7.04323H8.16913C8.33608 7.04323 8.47156 7.1787 8.47156 7.34661V8.4647C8.4706 8.6307 8.33513 8.76523 8.16913 8.76523H7.05294C6.88599 8.76523 6.75051 8.62976 6.75051 8.4628L6.74956 7.34661ZM6.74956 10.1972L6.75051 10.1963C6.75051 10.0293 6.88598 9.89385 7.05294 9.89385H8.16913C8.33608 9.89385 8.47156 10.0293 8.47156 10.1963V11.3153C8.4706 11.4813 8.33513 11.6158 8.16913 11.6158H7.05294C6.88599 11.6158 6.75051 11.4794 6.75051 11.3125L6.74956 10.1972ZM6.74956 13.0478L6.75051 13.0469C6.74765 12.9648 6.77818 12.8847 6.83542 12.8265C6.89266 12.7674 6.97089 12.734 7.05294 12.734H8.16913C8.33608 12.734 8.47155 12.8694 8.47155 13.0364V14.1554C8.47346 14.2365 8.44198 14.3148 8.38474 14.373C8.32845 14.4302 8.25022 14.4626 8.16913 14.4626H7.05294C6.88599 14.4626 6.75052 14.3272 6.75052 14.1602L6.74956 13.0478ZM6.74956 15.8985L6.75051 15.8966C6.75051 15.7296 6.88598 15.5941 7.05294 15.5941H8.16913C8.33608 15.5941 8.47156 15.7296 8.47156 15.8966V17.0156C8.46965 17.1806 8.33418 17.3133 8.16913 17.3133H7.05294C6.88599 17.3133 6.75051 17.1778 6.75051 17.0108L6.74956 15.8985ZM5.50171 17.0166V17.0156C5.50171 17.1826 5.36624 17.318 5.19928 17.318H4.08119C3.99914 17.3199 3.91996 17.2875 3.86176 17.2293C3.80357 17.1711 3.77209 17.0929 3.77304 17.0108V15.8918C3.77304 15.7248 3.90851 15.5894 4.07547 15.5894H5.19451C5.36146 15.5894 5.49694 15.7248 5.49694 15.8918L5.50171 17.0166ZM5.50171 14.1659V14.165C5.50171 14.3319 5.36624 14.4684 5.19928 14.4684H4.08119C3.99914 14.4693 3.92091 14.4378 3.86272 14.3806C3.80452 14.3224 3.77209 14.2442 3.77304 14.1631V13.044C3.77113 12.962 3.80261 12.8818 3.86081 12.8237C3.919 12.7645 3.99819 12.733 4.08119 12.734H5.19928C5.36623 12.734 5.50171 12.8694 5.50171 13.0364V14.1659ZM5.50171 11.3153C5.50171 11.4823 5.36624 11.6177 5.19928 11.6177H4.08119C3.99914 11.6187 3.92091 11.5872 3.86272 11.53C3.80452 11.4727 3.77209 11.3945 3.77304 11.3125V10.1944C3.77304 10.0265 3.90851 9.89099 4.07547 9.89099H5.19451C5.36146 9.89099 5.49694 10.0265 5.49694 10.1944L5.50171 11.3153ZM5.50171 8.4647C5.50171 8.63166 5.36624 8.76808 5.19928 8.76808H4.08119C3.99914 8.76904 3.92091 8.73756 3.86367 8.68031C3.80548 8.62403 3.77304 8.5458 3.77304 8.46471V7.34661C3.77304 7.17871 3.90851 7.04323 4.07547 7.04323H5.19452C5.36147 7.04323 5.49694 7.1787 5.49694 7.34661L5.50171 8.4647ZM5.50171 5.61409V5.61504C5.50171 5.78199 5.36624 5.91747 5.19928 5.91747H4.08119C3.99914 5.91842 3.92091 5.8879 3.86367 5.83065C3.80548 5.77341 3.77304 5.69614 3.77304 5.61505V4.496C3.77113 4.41395 3.80262 4.33382 3.86081 4.27562C3.91901 4.21647 3.99819 4.18499 4.08119 4.18595H5.19928C5.36623 4.18595 5.50171 4.32142 5.50171 4.48837L5.50171 5.61409ZM9.12896 22.5449H6.09322V18.7442C6.09322 18.5754 6.22965 18.4389 6.39851 18.4389H8.8217C8.90184 18.4389 8.98007 18.4714 9.03731 18.5286C9.09455 18.5859 9.12699 18.6631 9.12699 18.7442L9.12896 22.5449ZM11.4444 17.0107C11.4444 17.1776 11.3089 17.3131 11.1419 17.3131H10.0229C9.85593 17.3131 9.72046 17.1776 9.72046 17.0107V15.8916C9.72046 15.7247 9.85593 15.5892 10.0229 15.5892H11.1419C11.3089 15.5892 11.4444 15.7247 11.4444 15.8916V17.0107ZM11.4444 14.1601C11.4444 14.327 11.3089 14.4625 11.1419 14.4625H10.0229C9.85593 14.4625 9.72046 14.327 9.72046 14.1601V13.0439C9.71855 12.9628 9.74908 12.8836 9.80632 12.8254C9.86356 12.7663 9.94179 12.7338 10.0229 12.7338H11.1419C11.3089 12.7338 11.4444 12.8693 11.4444 13.0363L11.4444 14.1601ZM11.4444 11.3095V11.3104C11.4444 11.4774 11.3089 11.6128 11.1419 11.6128H10.0229C9.85593 11.6128 9.72046 11.4774 9.72046 11.3104V10.1942C9.72046 10.0263 9.85593 9.89084 10.0229 9.89084H11.1419C11.3089 9.89084 11.4444 10.0263 11.4444 10.1942V11.3095ZM11.4444 8.45884V8.4598C11.4444 8.62675 11.3089 8.76222 11.1419 8.76222H10.0229C9.85593 8.76222 9.72046 8.62675 9.72046 8.4598V7.34646C9.72046 7.17856 9.85593 7.04309 10.0229 7.04309H11.1419C11.3089 7.04309 11.4444 7.17856 11.4444 7.34646V8.45884ZM11.4444 5.60823V5.60918C11.4444 5.77709 11.3089 5.91256 11.1419 5.91256H10.0229C9.85593 5.91256 9.72046 5.77709 9.72046 5.60918V4.49585C9.71855 4.41476 9.74908 4.33557 9.80632 4.27738C9.86356 4.21823 9.94179 4.1858 10.0229 4.1858H11.1419C11.3089 4.1858 11.4444 4.32127 11.4444 4.48822L11.4444 5.60823ZM14.9246 17.0107C14.9246 17.1776 14.7891 17.3131 14.6222 17.3131H13.506C13.3381 17.3131 13.2026 17.1776 13.2026 17.0107V15.8916C13.2026 15.7247 13.3381 15.5892 13.506 15.5892H14.6241C14.791 15.5892 14.9274 15.7247 14.9274 15.8916L14.9246 17.0107ZM14.9246 11.3134V11.3124C14.9246 11.4794 14.7891 11.6158 14.6222 11.6158H13.506C13.3381 11.6158 13.2026 11.4794 13.2026 11.3124V10.1943C13.2026 10.0264 13.3381 9.89094 13.506 9.89094H14.6241C14.791 9.89094 14.9274 10.0264 14.9274 10.1943L14.9246 11.3134ZM18.5518 22.5478L15.5181 22.5469V18.7442C15.5181 18.5754 15.6545 18.439 15.8233 18.439H18.2465C18.3267 18.439 18.4049 18.4714 18.4621 18.5286C18.5194 18.5859 18.5518 18.6631 18.5518 18.7442L18.5518 22.5478ZM20.8691 17.0107C20.8691 17.1776 20.7337 17.3131 20.5667 17.3131H19.4477C19.2807 17.3131 19.1452 17.1776 19.1452 17.0107V15.8916C19.1452 15.7247 19.2807 15.5892 19.4477 15.5892H20.5667C20.7337 15.5892 20.8691 15.7247 20.8691 15.8916V17.0107ZM20.8691 14.1601C20.8691 14.327 20.7337 14.4625 20.5667 14.4625H19.4477C19.2807 14.4625 19.1452 14.327 19.1452 14.1601V13.0439C19.1433 12.9628 19.1739 12.8836 19.2311 12.8254C19.2883 12.7663 19.3666 12.7338 19.4477 12.7338H20.5667C20.6478 12.7338 20.726 12.7663 20.7833 12.8254C20.8405 12.8836 20.871 12.9628 20.8691 13.0439L20.8691 14.1601ZM20.8691 11.3095V11.3104C20.8691 11.4774 20.7337 11.6128 20.5667 11.6128H19.4477C19.2807 11.6128 19.1452 11.4774 19.1452 11.3104V10.1942C19.1452 10.0263 19.2807 9.89084 19.4477 9.89084H20.5667C20.7337 9.89084 20.8691 10.0263 20.8691 10.1942V11.3095Z" fill="white"/>
</svg>
