<?xml version="1.0" encoding="utf-8"?>
<!-- Generator: Adobe Illustrator 22.0.0, SVG Export Plug-In . SVG Version: 6.00 Build 0)  -->
<svg version="1.1" id="Layer_1" xmlns="http://www.w3.org/2000/svg" xmlns:xlink="http://www.w3.org/1999/xlink" x="0px" y="0px"
	 viewBox="0 0 32 32" style="enable-background:new 0 0 32 32;" xml:space="preserve">
<style type="text/css">
	.st0{fill:#FF6060;}
	.st1{fill:#FFFFFF;}
</style>
<path class="st0" d="M16,0C7.2,0,0,7.2,0,16c0,8.8,7.2,16,16,16c8.8,0,16-7.2,16-16C32,7.2,24.8,0,16,0z"/>
<path class="st1" d="M22,18.5c1,1,1.1,2.7,0.1,3.7c-1,1-2.6,0.9-3.7-0.1L16,19.5L13.5,22c-1,1-2.7,1.1-3.7,0.1c-1-1-0.9-2.6,0.1-3.7
	l2.5-2.5L10,13.5c-1-1-1.1-2.7-0.1-3.7c1-1,2.6-0.9,3.7,0.1l2.5,2.5l2.5-2.5c1-1,2.7-1.1,3.7-0.1c1,1,0.9,2.6-0.1,3.7L19.5,16
	L22,18.5z"/>
</svg>
