<svg width="24" height="22" viewBox="0 0 24 22" fill="none" xmlns="http://www.w3.org/2000/svg">
<path d="M18.12 13.4954L23.04 9.4399C23.7356 8.86428 23.3756 7.73551 22.4644 7.6877L16.1288 7.30332C15.7445 7.27895 15.4088 7.03894 15.2645 6.67894L12.9357 0.727656C12.6001 -0.112344 11.4235 -0.112344 11.0879 0.727656L8.76009 6.65542C8.61572 7.01542 8.28009 7.25542 7.89571 7.2798L1.53571 7.66418C0.624455 7.712 0.264455 8.8398 0.960095 9.41544L5.8801 13.4477C6.1679 13.6877 6.31229 14.0955 6.21571 14.4555L4.6079 20.6232C4.39228 21.4876 5.3279 22.1832 6.09571 21.7032L11.448 18.271C11.7836 18.0554 12.1923 18.0554 12.5036 18.271L17.8791 21.7032C18.6469 22.1832 19.5835 21.4876 19.3669 20.6232L17.7591 14.4788C17.6878 14.1197 17.8078 13.7353 18.12 13.4953L18.12 13.4954Z" fill="#FCBD60"/>
</svg>
