<svg width="82" height="82" viewBox="0 0 82 82" fill="none" xmlns="http://www.w3.org/2000/svg">
<circle cx="41" cy="41" r="41" fill="url(#paint0_linear)"/>
<path d="M38.7441 21.2196C39.5021 19.8297 41.4979 19.8297 42.2559 21.2196L47.3663 30.5902C47.654 31.1177 48.1635 31.4879 48.754 31.5984L59.2452 33.5631C60.8013 33.8545 61.418 35.7525 60.3304 36.9029L52.9976 44.6589C52.5849 45.0955 52.3903 45.6945 52.4676 46.2903L53.8411 56.8751C54.0448 58.4451 52.4302 59.6182 51 58.9393L41.3577 54.3621C40.8149 54.1045 40.1851 54.1045 39.6423 54.3621L30 58.9393C28.5698 59.6182 26.9552 58.4451 27.1589 56.8751L28.5324 46.2903C28.6097 45.6945 28.4151 45.0955 28.0024 44.6589L20.6696 36.9029C19.582 35.7525 20.1987 33.8545 21.7548 33.5631L32.246 31.5984C32.8365 31.4879 33.346 31.1177 33.6337 30.5902L38.7441 21.2196Z" fill="white"/>
<defs>
<linearGradient id="paint0_linear" x1="6" y1="73.5" x2="82" y2="41" gradientUnits="userSpaceOnUse">
<stop stop-color="#FFAC2F"/>
<stop offset="1" stop-color="#FFD18C"/>
</linearGradient>
</defs>
</svg>
