<svg width="21" height="24" viewBox="0 0 21 24" fill="none" xmlns="http://www.w3.org/2000/svg">
<path fill-rule="evenodd" clip-rule="evenodd" d="M8.50903 2.86532C5.12213 3.73634 2.61816 6.81133 2.61816 10.4728V15.7092C2.61816 16.1915 2.22612 16.5819 1.74714 16.5819C0.782395 16.5819 0 17.366 0 18.3273C0 19.2921 0.782394 20.0728 1.75055 20.0728H19.1949C20.1614 20.0728 20.9455 19.2887 20.9455 18.3273C20.9455 17.3626 20.1597 16.5819 19.1983 16.5819C18.7176 16.5819 18.3273 16.1932 18.3273 15.7092V10.4728C18.3273 6.8132 15.825 3.73804 12.4364 2.86532V1.96362C12.4364 0.876125 11.5569 0 10.4728 0C9.39043 0 8.5092 0.879528 8.5092 1.96362L8.50903 2.86532ZM7.41813 20.9455H13.5272C13.5272 22.633 12.1601 24 10.4727 24C8.78516 24 7.41813 22.633 7.41813 20.9455Z" fill="#909AAD"/>
</svg>
