<svg width="72" height="72" viewBox="0 0 72 72" fill="none" xmlns="http://www.w3.org/2000/svg">
<circle cx="36" cy="36" r="36" fill="#2D86BE"/>
<path d="M31.4683 38.1095V44.8066H27.3823V38.1095L20.9995 27.1934H24.6019C24.9565 27.1934 25.2386 27.278 25.4481 27.4473C25.6577 27.6085 25.8269 27.818 25.9559 28.0759L28.4461 33.2015C28.6476 33.6125 28.833 33.9913 29.0022 34.3378C29.1714 34.6844 29.3205 35.0269 29.4495 35.3653C29.5704 35.0188 29.7154 34.6723 29.8847 34.3257C30.0539 33.9792 30.2352 33.6044 30.4287 33.2015L32.8947 28.0759C32.9431 27.9711 33.0076 27.8664 33.0882 27.7616C33.1768 27.6568 33.2735 27.5641 33.3783 27.4835C33.4911 27.3949 33.616 27.3264 33.753 27.278C33.8981 27.2216 34.0553 27.1934 34.2245 27.1934H37.8511L31.4683 38.1095Z" fill="white"/>
<path d="M48.8701 30.7717C48.7492 30.9651 48.6203 31.1101 48.4833 31.2069C48.3543 31.3036 48.1851 31.3519 47.9755 31.3519C47.7902 31.3519 47.5887 31.2955 47.3711 31.1827C47.1616 31.0618 46.9198 30.9288 46.6458 30.7837C46.3798 30.6387 46.0736 30.5097 45.727 30.3969C45.3805 30.276 44.9856 30.2156 44.5424 30.2156C43.7767 30.2156 43.2045 30.3808 42.8258 30.7112C42.455 31.0336 42.2697 31.4728 42.2697 32.0289C42.2697 32.3835 42.3825 32.6776 42.6082 32.9113C42.8338 33.1451 43.128 33.3465 43.4906 33.5158C43.8614 33.685 44.2804 33.8422 44.7479 33.9872C45.2233 34.1242 45.7069 34.2814 46.1985 34.4587C46.6901 34.6279 47.1696 34.8294 47.637 35.0631C48.1125 35.2968 48.5316 35.595 48.8943 35.9577C49.265 36.3203 49.5632 36.7636 49.7888 37.2874C50.0145 37.8032 50.1273 38.4278 50.1273 39.1612C50.1273 39.9752 49.9863 40.7367 49.7042 41.4459C49.4221 42.1551 49.0111 42.7757 48.4712 43.3076C47.9393 43.8314 47.2784 44.2465 46.4886 44.5527C45.7069 44.8509 44.8164 45 43.817 45C43.269 45 42.7089 44.9436 42.1367 44.8308C41.5726 44.7179 41.0246 44.5608 40.4927 44.3593C39.9608 44.1498 39.4611 43.904 38.9937 43.6219C38.5262 43.3398 38.1192 43.0255 37.7727 42.679L38.9816 40.769C39.0702 40.6239 39.1951 40.5071 39.3563 40.4184C39.5175 40.3298 39.6908 40.2854 39.8761 40.2854C40.1179 40.2854 40.3597 40.362 40.6014 40.5151C40.8513 40.6682 41.1293 40.8375 41.4356 41.0228C41.7499 41.2082 42.1085 41.3774 42.5115 41.5306C42.9144 41.6837 43.3899 41.7602 43.9379 41.7602C44.6794 41.7602 45.2556 41.5991 45.6666 41.2767C46.0776 40.9463 46.2831 40.4265 46.2831 39.7173C46.2831 39.3062 46.1703 38.9718 45.9446 38.7139C45.719 38.456 45.4208 38.2424 45.0501 38.0732C44.6874 37.904 44.2724 37.7549 43.8049 37.6259C43.3375 37.497 42.858 37.3559 42.3664 37.2028C41.8748 37.0416 41.3953 36.8482 40.9278 36.6226C40.4604 36.3889 40.0413 36.0866 39.6706 35.7159C39.308 35.3371 39.0138 34.8697 38.7882 34.3136C38.5625 33.7495 38.4497 33.0564 38.4497 32.2344C38.4497 31.5735 38.5826 30.9288 38.8486 30.3002C39.1145 29.6716 39.5054 29.1115 40.0212 28.6199C40.537 28.1283 41.1696 27.7374 41.9191 27.4473C42.6686 27.1491 43.5269 27 44.494 27C45.034 27 45.5578 27.0443 46.0655 27.133C46.5813 27.2136 47.0689 27.3385 47.5282 27.5077C47.9876 27.6689 48.4147 27.8664 48.8096 28.1001C49.2126 28.3257 49.5712 28.5836 49.8855 28.8737L48.8701 30.7717Z" fill="white"/>
</svg>
