<svg width="48" height="48" viewBox="0 0 48 48" fill="none" xmlns="http://www.w3.org/2000/svg">
<circle cx="24" cy="24" r="24" fill="#48B349"/>
<path d="M20.9792 25.4063V29.8711H18.2552V25.4063L14 18.1289H16.4016C16.638 18.1289 16.8261 18.1854 16.9657 18.2982C17.1054 18.4056 17.2183 18.5453 17.3042 18.7173L18.9644 22.1343C19.0987 22.4083 19.2223 22.6608 19.3351 22.8919C19.448 23.1229 19.5473 23.3512 19.6333 23.5769C19.7139 23.3459 19.8106 23.1148 19.9234 22.8838C20.0363 22.6528 20.1572 22.403 20.2861 22.1343L21.9302 18.7173C21.9624 18.6474 22.0054 18.5776 22.0591 18.5077C22.1182 18.4379 22.1827 18.3761 22.2525 18.3224C22.3277 18.2633 22.411 18.2176 22.5024 18.1854C22.5991 18.1478 22.7038 18.1289 22.8167 18.1289H25.2344L20.9792 25.4063Z" fill="white"/>
<path d="M32.5804 20.5144C32.4998 20.6434 32.4138 20.7401 32.3225 20.8046C32.2365 20.869 32.1237 20.9013 31.984 20.9013C31.8604 20.9013 31.7261 20.8637 31.5811 20.7884C31.4414 20.7079 31.2802 20.6192 31.0975 20.5225C30.9202 20.4258 30.716 20.3398 30.485 20.2646C30.254 20.184 29.9907 20.1437 29.6952 20.1437C29.1848 20.1437 28.8034 20.2539 28.5508 20.4741C28.3037 20.6891 28.1801 20.9819 28.1801 21.3526C28.1801 21.589 28.2553 21.7851 28.4058 21.9409C28.5562 22.0967 28.7523 22.231 28.9941 22.3439C29.2412 22.4567 29.5206 22.5615 29.8322 22.6582C30.1492 22.7495 30.4716 22.8543 30.7993 22.9725C31.1271 23.0853 31.4467 23.2196 31.7584 23.3754C32.0753 23.5312 32.3547 23.73 32.5965 23.9718C32.8436 24.2136 33.0424 24.5091 33.1929 24.8583C33.3433 25.2021 33.4185 25.6185 33.4185 26.1075C33.4185 26.6501 33.3245 27.1578 33.1365 27.6306C32.9484 28.1034 32.6744 28.5171 32.3144 28.8717C31.9598 29.221 31.5193 29.4977 30.9927 29.7018C30.4716 29.9006 29.8779 30 29.2117 30C28.8463 30 28.4729 29.9624 28.0915 29.8872C27.7154 29.812 27.35 29.7072 26.9954 29.5729C26.6408 29.4332 26.3077 29.2693 25.9961 29.0813C25.6845 28.8932 25.4132 28.6837 25.1821 28.4527L25.988 27.1793C26.0471 27.0826 26.1304 27.0047 26.2379 26.9456C26.3453 26.8865 26.4608 26.857 26.5844 26.857C26.7456 26.857 26.9068 26.908 27.068 27.0101C27.2345 27.1122 27.4199 27.225 27.624 27.3486C27.8336 27.4721 28.0727 27.585 28.3413 27.687C28.6099 27.7891 28.9269 27.8402 29.2923 27.8402C29.7866 27.8402 30.1707 27.7327 30.4447 27.5178C30.7187 27.2975 30.8557 26.951 30.8557 26.4782C30.8557 26.2042 30.7805 25.9812 30.6301 25.8093C30.4796 25.6373 30.2809 25.495 30.0337 25.3821C29.7919 25.2693 29.5152 25.1699 29.2036 25.0839C28.892 24.998 28.5723 24.904 28.2446 24.8019C27.9168 24.6944 27.5972 24.5655 27.2856 24.415C26.9739 24.2592 26.6946 24.0578 26.4474 23.8106C26.2056 23.5581 26.0095 23.2465 25.8591 22.8758C25.7087 22.4997 25.6334 22.0376 25.6334 21.4896C25.6334 21.049 25.7221 20.6192 25.8994 20.2001C26.0767 19.7811 26.3373 19.4077 26.6811 19.0799C27.025 18.7522 27.4467 18.4916 27.9464 18.2982C28.4461 18.0994 29.0183 18 29.663 18C30.023 18 30.3722 18.0296 30.7107 18.0887C31.0545 18.1424 31.3796 18.2257 31.6858 18.3385C31.9921 18.4459 32.2768 18.5776 32.5401 18.7334C32.8087 18.8838 33.0478 19.0557 33.2573 19.2492L32.5804 20.5144Z" fill="white"/>
</svg>
